<svg width="77" height="77" viewBox="0 0 77 77" fill="none" xmlns="http://www.w3.org/2000/svg">
<path d="M39 4.16669C41.7359 4.16669 44.445 4.70556 46.9726 5.75253C49.5002 6.79951 51.7969 8.33408 53.7314 10.2686C55.666 12.2032 57.2005 14.4998 58.2475 17.0275C59.2945 19.5551 59.8334 22.2642 59.8334 25M39 4.16669V25M39 4.16669C27.4941 4.16669 18.1667 13.4941 18.1667 25C18.1667 36.506 27.4941 45.8334 39 45.8334C50.506 45.8334 59.8334 36.506 59.8334 25M39 4.16669C50.506 4.16669 59.8334 13.4941 59.8334 25M59.8334 25L39 25M59.8334 25C59.8334 28.2878 59.0552 31.5288 57.5627 34.4582C56.0701 37.3875 53.9054 39.9221 51.2455 41.8545L39 25" stroke="#0F0F0F" strokeWidth="2" strokeLinecap="round" strokeLinejoin="round"/>
<path d="M7.904 66.728H3.248L2.448 69H0.544L4.528 57.864H6.64L10.624 69H8.704L7.904 66.728ZM7.392 65.24L5.584 60.072L3.76 65.24H7.392ZM17.1242 60.04C17.8176 60.04 18.4362 60.184 18.9802 60.472C19.5349 60.76 19.9669 61.1867 20.2762 61.752C20.5856 62.3173 20.7403 63 20.7403 63.8V69H18.9323V64.072C18.9323 63.2827 18.7349 62.68 18.3403 62.264C17.9456 61.8373 17.4069 61.624 16.7242 61.624C16.0416 61.624 15.4976 61.8373 15.0922 62.264C14.6976 62.68 14.5002 63.2827 14.5002 64.072V69H12.6762V60.184H14.5002V61.192C14.7989 60.8293 15.1776 60.5467 15.6363 60.344C16.1056 60.1413 16.6016 60.04 17.1242 60.04ZM22.7789 64.552C22.7789 63.6667 22.9602 62.8827 23.3229 62.2C23.6962 61.5173 24.1975 60.9893 24.8269 60.616C25.4669 60.232 26.1709 60.04 26.9389 60.04C27.6322 60.04 28.2349 60.1787 28.7469 60.456C29.2695 60.7227 29.6855 61.0587 29.9949 61.464V60.184H31.8349V69H29.9949V67.688C29.6855 68.104 29.2642 68.4507 28.7309 68.728C28.1975 69.0053 27.5895 69.144 26.9069 69.144C26.1495 69.144 25.4562 68.952 24.8269 68.568C24.1975 68.1733 23.6962 67.6293 23.3229 66.936C22.9602 66.232 22.7789 65.4373 22.7789 64.552ZM29.9949 64.584C29.9949 63.976 29.8669 63.448 29.6109 63C29.3655 62.552 29.0402 62.2107 28.6349 61.976C28.2295 61.7413 27.7922 61.624 27.3229 61.624C26.8535 61.624 26.4162 61.7413 26.0109 61.976C25.6055 62.2 25.2749 62.536 25.0189 62.984C24.7735 63.4213 24.6509 63.944 24.6509 64.552C24.6509 65.16 24.7735 65.6933 25.0189 66.152C25.2749 66.6107 25.6055 66.9627 26.0109 67.208C26.4269 67.4427 26.8642 67.56 27.3229 67.56C27.7922 67.56 28.2295 67.4427 28.6349 67.208C29.0402 66.9733 29.3655 66.632 29.6109 66.184C29.8669 65.7253 29.9949 65.192 29.9949 64.584ZM36.3746 57.16V69H34.5506V57.16H36.3746ZM47.0254 60.184L41.6174 73.144H39.7294L41.5214 68.856L38.0494 60.184H40.0814L42.5614 66.904L45.1374 60.184H47.0254ZM50.8499 61.672V66.552C50.8499 66.8827 50.9245 67.1227 51.0739 67.272C51.2339 67.4107 51.5005 67.48 51.8739 67.48H52.9939V69H51.5539C50.7325 69 50.1032 68.808 49.6659 68.424C49.2285 68.04 49.0099 67.416 49.0099 66.552V61.672H47.9699V60.184H49.0099V57.992H50.8499V60.184H52.9939V61.672H50.8499ZM55.923 59.016C55.5923 59.016 55.315 58.904 55.091 58.68C54.867 58.456 54.755 58.1787 54.755 57.848C54.755 57.5173 54.867 57.24 55.091 57.016C55.315 56.792 55.5923 56.68 55.923 56.68C56.243 56.68 56.515 56.792 56.739 57.016C56.963 57.24 57.075 57.5173 57.075 57.848C57.075 58.1787 56.963 58.456 56.739 58.68C56.515 58.904 56.243 59.016 55.923 59.016ZM56.819 60.184V69H54.995V60.184H56.819ZM58.9258 64.584C58.9258 63.6773 59.1071 62.8827 59.4698 62.2C59.8431 61.5067 60.3551 60.9733 61.0058 60.6C61.6564 60.2267 62.4031 60.04 63.2458 60.04C64.3124 60.04 65.1924 60.296 65.8858 60.808C66.5898 61.3093 67.0644 62.0293 67.3098 62.968H65.3418C65.1818 62.5307 64.9258 62.1893 64.5738 61.944C64.2218 61.6987 63.7791 61.576 63.2458 61.576C62.4991 61.576 61.9018 61.8427 61.4538 62.376C61.0164 62.8987 60.7978 63.6347 60.7978 64.584C60.7978 65.5333 61.0164 66.2747 61.4538 66.808C61.9018 67.3413 62.4991 67.608 63.2458 67.608C64.3018 67.608 65.0004 67.144 65.3418 66.216H67.3098C67.0538 67.112 66.5738 67.8267 65.8698 68.36C65.1658 68.8827 64.2911 69.144 63.2458 69.144C62.4031 69.144 61.6564 68.9573 61.0058 68.584C60.3551 68.2 59.8431 67.6667 59.4698 66.984C59.1071 66.2907 58.9258 65.4907 58.9258 64.584ZM72.6475 69.144C71.9542 69.144 71.3302 69.0213 70.7755 68.776C70.2315 68.52 69.7995 68.1787 69.4795 67.752C69.1595 67.3147 68.9888 66.8293 68.9675 66.296H70.8555C70.8875 66.6693 71.0635 66.984 71.3835 67.24C71.7142 67.4853 72.1248 67.608 72.6155 67.608C73.1275 67.608 73.5222 67.512 73.7995 67.32C74.0875 67.1173 74.2315 66.8613 74.2315 66.552C74.2315 66.2213 74.0715 65.976 73.7515 65.816C73.4422 65.656 72.9462 65.48 72.2635 65.288C71.6022 65.1067 71.0635 64.9307 70.6475 64.76C70.2315 64.5893 69.8688 64.328 69.5595 63.976C69.2608 63.624 69.1115 63.16 69.1115 62.584C69.1115 62.1147 69.2502 61.688 69.5275 61.304C69.8048 60.9093 70.1995 60.6 70.7115 60.376C71.2342 60.152 71.8315 60.04 72.5035 60.04C73.5062 60.04 74.3115 60.296 74.9195 60.808C75.5382 61.3093 75.8688 61.9973 75.9115 62.872H74.0875C74.0555 62.4773 73.8955 62.1627 73.6075 61.928C73.3195 61.6933 72.9302 61.576 72.4395 61.576C71.9595 61.576 71.5915 61.6667 71.3355 61.848C71.0795 62.0293 70.9515 62.2693 70.9515 62.568C70.9515 62.8027 71.0368 63 71.2075 63.16C71.3782 63.32 71.5862 63.448 71.8315 63.544C72.0768 63.6293 72.4395 63.7413 72.9195 63.88C73.5595 64.0507 74.0822 64.2267 74.4875 64.408C74.9035 64.5787 75.2608 64.8347 75.5595 65.176C75.8582 65.5173 76.0128 65.9707 76.0235 66.536C76.0235 67.0373 75.8848 67.4853 75.6075 67.88C75.3302 68.2747 74.9355 68.584 74.4235 68.808C73.9222 69.032 73.3302 69.144 72.6475 69.144Z" fill="white"/>
</svg>
