<svg width="60" height="81" viewBox="0 0 60 81" fill="none" xmlns="http://www.w3.org/2000/svg">
<path d="M7.744 59.88V61.368H3.024V64.648H6.704V66.136H3.024V71H1.2V59.88H7.744ZM11.5784 63.464C11.845 63.016 12.197 62.6693 12.6344 62.424C13.0824 62.168 13.6104 62.04 14.2184 62.04V63.928H13.7544C13.0397 63.928 12.4957 64.1093 12.1224 64.472C11.7597 64.8347 11.5784 65.464 11.5784 66.36V71H9.75437V62.184H11.5784V63.464ZM17.143 61.016C16.8123 61.016 16.535 60.904 16.311 60.68C16.087 60.456 15.975 60.1787 15.975 59.848C15.975 59.5173 16.087 59.24 16.311 59.016C16.535 58.792 16.8123 58.68 17.143 58.68C17.463 58.68 17.735 58.792 17.959 59.016C18.183 59.24 18.295 59.5173 18.295 59.848C18.295 60.1787 18.183 60.456 17.959 60.68C17.735 60.904 17.463 61.016 17.143 61.016ZM18.039 62.184V71H16.215V62.184H18.039ZM28.8337 66.376C28.8337 66.7067 28.8124 67.0053 28.7697 67.272H22.0337C22.0871 67.976 22.3484 68.5413 22.8177 68.968C23.2871 69.3947 23.8631 69.608 24.5457 69.608C25.5271 69.608 26.2204 69.1973 26.6257 68.376H28.5937C28.3271 69.1867 27.8417 69.8533 27.1377 70.376C26.4444 70.888 25.5804 71.144 24.5457 71.144C23.7031 71.144 22.9457 70.9573 22.2737 70.584C21.6124 70.2 21.0897 69.6667 20.7057 68.984C20.3324 68.2907 20.1457 67.4907 20.1457 66.584C20.1457 65.6773 20.3271 64.8827 20.6897 64.2C21.0631 63.5067 21.5804 62.9733 22.2417 62.6C22.9137 62.2267 23.6817 62.04 24.5457 62.04C25.3777 62.04 26.1191 62.2213 26.7697 62.584C27.4204 62.9467 27.9271 63.4587 28.2897 64.12C28.6524 64.7707 28.8337 65.5227 28.8337 66.376ZM26.9297 65.8C26.9191 65.128 26.6791 64.5893 26.2097 64.184C25.7404 63.7787 25.1591 63.576 24.4657 63.576C23.8364 63.576 23.2977 63.7787 22.8497 64.184C22.4017 64.5787 22.1351 65.1173 22.0497 65.8H26.9297ZM35.3968 62.04C36.0901 62.04 36.7088 62.184 37.2528 62.472C37.8074 62.76 38.2394 63.1867 38.5488 63.752C38.8581 64.3173 39.0128 65 39.0128 65.8V71H37.2048V66.072C37.2048 65.2827 37.0074 64.68 36.6128 64.264C36.2181 63.8373 35.6794 63.624 34.9968 63.624C34.3141 63.624 33.7701 63.8373 33.3648 64.264C32.9701 64.68 32.7728 65.2827 32.7728 66.072V71H30.9488V62.184H32.7728V63.192C33.0714 62.8293 33.4501 62.5467 33.9088 62.344C34.3781 62.1413 34.8741 62.04 35.3968 62.04ZM41.0514 66.552C41.0514 65.6667 41.2327 64.8827 41.5954 64.2C41.9687 63.5173 42.47 62.9893 43.0994 62.616C43.7394 62.232 44.4487 62.04 45.2274 62.04C45.8034 62.04 46.3687 62.168 46.9234 62.424C47.4887 62.6693 47.9367 63 48.2674 63.416V59.16H50.1074V71H48.2674V69.672C47.9687 70.0987 47.5527 70.4507 47.0194 70.728C46.4967 71.0053 45.894 71.144 45.2114 71.144C44.4434 71.144 43.7394 70.952 43.0994 70.568C42.47 70.1733 41.9687 69.6293 41.5954 68.936C41.2327 68.232 41.0514 67.4373 41.0514 66.552ZM48.2674 66.584C48.2674 65.976 48.1394 65.448 47.8834 65C47.638 64.552 47.3127 64.2107 46.9074 63.976C46.502 63.7413 46.0647 63.624 45.5954 63.624C45.126 63.624 44.6887 63.7413 44.2834 63.976C43.878 64.2 43.5474 64.536 43.2914 64.984C43.046 65.4213 42.9234 65.944 42.9234 66.552C42.9234 67.16 43.046 67.6933 43.2914 68.152C43.5474 68.6107 43.878 68.9627 44.2834 69.208C44.6994 69.4427 45.1367 69.56 45.5954 69.56C46.0647 69.56 46.502 69.4427 46.9074 69.208C47.3127 68.9733 47.638 68.632 47.8834 68.184C48.1394 67.7253 48.2674 67.192 48.2674 66.584ZM56.0231 71.144C55.3298 71.144 54.7058 71.0213 54.1511 70.776C53.6071 70.52 53.1751 70.1787 52.8551 69.752C52.5351 69.3147 52.3645 68.8293 52.3431 68.296H54.2311C54.2631 68.6693 54.4391 68.984 54.7591 69.24C55.0898 69.4853 55.5005 69.608 55.9911 69.608C56.5031 69.608 56.8978 69.512 57.1751 69.32C57.4631 69.1173 57.6071 68.8613 57.6071 68.552C57.6071 68.2213 57.4471 67.976 57.1271 67.816C56.8178 67.656 56.3218 67.48 55.6391 67.288C54.9778 67.1067 54.4391 66.9307 54.0231 66.76C53.6071 66.5893 53.2445 66.328 52.9351 65.976C52.6365 65.624 52.4871 65.16 52.4871 64.584C52.4871 64.1147 52.6258 63.688 52.9031 63.304C53.1805 62.9093 53.5751 62.6 54.0871 62.376C54.6098 62.152 55.2071 62.04 55.8791 62.04C56.8818 62.04 57.6871 62.296 58.2951 62.808C58.9138 63.3093 59.2445 63.9973 59.2871 64.872H57.4631C57.4311 64.4773 57.2711 64.1627 56.9831 63.928C56.6951 63.6933 56.3058 63.576 55.8151 63.576C55.3351 63.576 54.9671 63.6667 54.7111 63.848C54.4551 64.0293 54.3271 64.2693 54.3271 64.568C54.3271 64.8027 54.4125 65 54.5831 65.16C54.7538 65.32 54.9618 65.448 55.2071 65.544C55.4525 65.6293 55.8151 65.7413 56.2951 65.88C56.9351 66.0507 57.4578 66.2267 57.8631 66.408C58.2791 66.5787 58.6365 66.8347 58.9351 67.176C59.2338 67.5173 59.3885 67.9707 59.3991 68.536C59.3991 69.0373 59.2605 69.4853 58.9831 69.88C58.7058 70.2747 58.3111 70.584 57.7991 70.808C57.2978 71.032 56.7058 71.144 56.0231 71.144Z" fill="white"/>
<path d="M21.3593 11.9922C20.8923 11.0994 20.7883 10.0608 21.069 9.09317C21.3497 8.12555 21.9934 7.30382 22.8657 6.79962C23.738 6.29542 24.7713 6.14774 25.7499 6.38744C26.7285 6.62714 27.5766 7.23567 28.1171 8.08592L33.9765 18.2226" stroke="black" strokeWidth="2" strokeLinecap="round" strokeLinejoin="round"/>
<path d="M16.164 18.5937L13.039 13.1836C12.572 12.2908 12.468 11.2522 12.7487 10.2846C13.0294 9.31696 13.6731 8.49523 14.5454 7.99103C15.4177 7.48682 16.451 7.33915 17.4296 7.57885C18.4082 7.81854 19.2563 8.42707 19.7968 9.27733L26.4374 20.7812" stroke="black" strokeWidth="2" strokeLinecap="round" strokeLinejoin="round"/>
<path d="M33.0782 32.2852C32.5636 31.3981 32.2291 30.4183 32.0939 29.4017C31.9587 28.3851 32.0254 27.3519 32.2904 26.3612C32.5553 25.3705 33.0131 24.4418 33.6376 23.6284C34.2622 22.815 35.0411 22.1329 35.9298 21.6211L33.9767 18.2227C33.4587 17.3239 33.3189 16.2562 33.5881 15.2544C33.8573 14.2527 34.5135 13.3989 35.4122 12.8809C36.3109 12.3629 37.3786 12.2231 38.3804 12.4923C39.3822 12.7615 40.236 13.4177 40.754 14.3164L44.6603 21.0937C46.7323 24.6835 47.2934 28.9493 46.2202 32.9528C45.147 36.9562 42.5273 40.3694 38.9376 42.4414C35.3479 44.5134 31.082 45.0745 27.0786 44.0013C23.0751 42.9281 19.662 40.3085 17.5899 36.7187L9.38683 22.5C9.13034 22.055 8.96401 21.5638 8.89734 21.0545C8.83068 20.5452 8.86497 20.0278 8.99828 19.5318C9.26749 18.53 9.92364 17.6762 10.8224 17.1582C11.7211 16.6402 12.7888 16.5004 13.7906 16.7696C14.7924 17.0389 15.6462 17.695 16.1642 18.5937L20.461 26.0352" stroke="black" strokeWidth="2" strokeLinecap="round" strokeLinejoin="round"/>
<path d="M18.8398 46.875C16.1859 45.0445 13.9767 42.6417 12.375 39.8438" stroke="black" strokeWidth="2" strokeLinecap="round" strokeLinejoin="round"/>
<path d="M37.375 6.05472C39.1579 6.04989 40.9103 6.5172 42.454 7.40914C43.9977 8.30107 45.2778 9.58585 46.1641 11.1328" stroke="black" strokeWidth="2" strokeLinecap="round" strokeLinejoin="round"/>
</svg>
