<svg width="50" height="71" viewBox="0 0 50 71" fill="none" xmlns="http://www.w3.org/2000/svg">
<path d="M10.08 56.88V68H8.256V63.136H3.024V68H1.2V56.88H3.024V61.648H8.256V56.88H10.08ZM16.6252 68.144C15.7932 68.144 15.0412 67.9573 14.3692 67.584C13.6972 67.2 13.1692 66.6667 12.7852 65.984C12.4012 65.2907 12.2092 64.4907 12.2092 63.584C12.2092 62.688 12.4066 61.8933 12.8012 61.2C13.1959 60.5067 13.7346 59.9733 14.4172 59.6C15.0999 59.2267 15.8626 59.04 16.7052 59.04C17.5479 59.04 18.3106 59.2267 18.9932 59.6C19.6759 59.9733 20.2146 60.5067 20.6093 61.2C21.0039 61.8933 21.2013 62.688 21.2013 63.584C21.2013 64.48 20.9986 65.2747 20.5933 65.968C20.1879 66.6613 19.6333 67.2 18.9293 67.584C18.2359 67.9573 17.4679 68.144 16.6252 68.144ZM16.6252 66.56C17.0946 66.56 17.5319 66.448 17.9373 66.224C18.3533 66 18.6893 65.664 18.9453 65.216C19.2012 64.768 19.3292 64.224 19.3292 63.584C19.3292 62.944 19.2066 62.4053 18.9612 61.968C18.7159 61.52 18.3906 61.184 17.9852 60.96C17.5799 60.736 17.1426 60.624 16.6732 60.624C16.2039 60.624 15.7666 60.736 15.3612 60.96C14.9666 61.184 14.6519 61.52 14.4172 61.968C14.1826 62.4053 14.0652 62.944 14.0652 63.584C14.0652 64.5333 14.3052 65.2693 14.7852 65.792C15.2759 66.304 15.8892 66.56 16.6252 66.56ZM33.9964 59.04C34.6897 59.04 35.3084 59.184 35.8524 59.472C36.407 59.76 36.839 60.1867 37.1484 60.752C37.4684 61.3173 37.6284 62 37.6284 62.8V68H35.8204V63.072C35.8204 62.2827 35.623 61.68 35.2284 61.264C34.8337 60.8373 34.295 60.624 33.6124 60.624C32.9297 60.624 32.3857 60.8373 31.9804 61.264C31.5857 61.68 31.3884 62.2827 31.3884 63.072V68H29.5804V63.072C29.5804 62.2827 29.383 61.68 28.9884 61.264C28.5937 60.8373 28.055 60.624 27.3724 60.624C26.6897 60.624 26.1457 60.8373 25.7404 61.264C25.3457 61.68 25.1484 62.2827 25.1484 63.072V68H23.3244V59.184H25.1484V60.192C25.447 59.8293 25.8257 59.5467 26.2844 59.344C26.743 59.1413 27.2337 59.04 27.7564 59.04C28.4604 59.04 29.0897 59.1893 29.6444 59.488C30.199 59.7867 30.6257 60.2187 30.9244 60.784C31.191 60.2507 31.607 59.8293 32.1724 59.52C32.7377 59.2 33.3457 59.04 33.9964 59.04ZM48.3494 63.376C48.3494 63.7067 48.328 64.0053 48.2854 64.272H41.5494C41.6027 64.976 41.864 65.5413 42.3334 65.968C42.8027 66.3947 43.3787 66.608 44.0614 66.608C45.0427 66.608 45.736 66.1973 46.1414 65.376H48.1094C47.8427 66.1867 47.3574 66.8533 46.6534 67.376C45.96 67.888 45.096 68.144 44.0614 68.144C43.2187 68.144 42.4614 67.9573 41.7894 67.584C41.128 67.2 40.6054 66.6667 40.2214 65.984C39.848 65.2907 39.6614 64.4907 39.6614 63.584C39.6614 62.6773 39.8427 61.8827 40.2054 61.2C40.5787 60.5067 41.096 59.9733 41.7574 59.6C42.4294 59.2267 43.1974 59.04 44.0614 59.04C44.8934 59.04 45.6347 59.2213 46.2854 59.584C46.936 59.9467 47.4427 60.4587 47.8054 61.12C48.168 61.7707 48.3494 62.5227 48.3494 63.376ZM46.4454 62.8C46.4347 62.128 46.1947 61.5893 45.7254 61.184C45.256 60.7787 44.6747 60.576 43.9814 60.576C43.352 60.576 42.8134 60.7787 42.3654 61.184C41.9174 61.5787 41.6507 62.1173 41.5654 62.8H46.4454Z" fill="white"/>
<path d="M29.6875 40.625V31.25C29.6875 30.8356 29.5229 30.4382 29.2299 30.1451C28.9368 29.8521 28.5394 29.6875 28.125 29.6875H21.875C21.4606 29.6875 21.0632 29.8521 20.7701 30.1451C20.4771 30.4382 20.3125 30.8356 20.3125 31.25V40.625C20.3125 41.0394 20.1479 41.4368 19.8549 41.7298C19.5618 42.0229 19.1644 42.1875 18.75 42.1875H9.375C8.9606 42.1875 8.56317 42.0229 8.27015 41.7298C7.97712 41.4368 7.8125 41.0394 7.8125 40.625V22.5586C7.816 22.3423 7.86273 22.129 7.94994 21.9311C8.03715 21.7332 8.16308 21.5547 8.32031 21.4062L23.9453 7.20702C24.2334 6.94351 24.6096 6.79736 25 6.79736C25.3904 6.79736 25.7666 6.94351 26.0547 7.20702L41.6797 21.4062C41.8369 21.5547 41.9628 21.7332 42.0501 21.9311C42.1373 22.129 42.184 22.3423 42.1875 22.5586V40.625C42.1875 41.0394 42.0229 41.4368 41.7299 41.7298C41.4368 42.0229 41.0394 42.1875 40.625 42.1875H31.25C30.8356 42.1875 30.4382 42.0229 30.1451 41.7298C29.8521 41.4368 29.6875 41.0394 29.6875 40.625Z" stroke="black" stroke-width="3" stroke-linecap="round" stroke-linejoin="round"/>
</svg>
