<svg width="32" height="32" viewBox="0 0 32 32" fill="none" xmlns="http://www.w3.org/2000/svg">
<path d="M18.6667 10.6667H20C20.3536 10.6667 20.6928 10.5262 20.9428 10.2762C21.1929 10.0261 21.3333 9.68698 21.3333 9.33335C21.3333 8.97973 21.1929 8.64059 20.9428 8.39055C20.6928 8.1405 20.3536 8.00002 20 8.00002H18.6667C18.313 8.00002 17.9739 8.1405 17.7239 8.39055C17.4738 8.64059 17.3333 8.97973 17.3333 9.33335C17.3333 9.68698 17.4738 10.0261 17.7239 10.2762C17.9739 10.5262 18.313 10.6667 18.6667 10.6667V10.6667ZM18.6667 16H20C20.3536 16 20.6928 15.8595 20.9428 15.6095C21.1929 15.3594 21.3333 15.0203 21.3333 14.6667C21.3333 14.3131 21.1929 13.9739 20.9428 13.7239C20.6928 13.4738 20.3536 13.3334 20 13.3334H18.6667C18.313 13.3334 17.9739 13.4738 17.7239 13.7239C17.4738 13.9739 17.3333 14.3131 17.3333 14.6667C17.3333 15.0203 17.4738 15.3594 17.7239 15.6095C17.9739 15.8595 18.313 16 18.6667 16V16ZM12 10.6667H13.3333C13.687 10.6667 14.0261 10.5262 14.2761 10.2762C14.5262 10.0261 14.6667 9.68698 14.6667 9.33335C14.6667 8.97973 14.5262 8.64059 14.2761 8.39055C14.0261 8.1405 13.687 8.00002 13.3333 8.00002H12C11.6464 8.00002 11.3072 8.1405 11.0572 8.39055C10.8071 8.64059 10.6667 8.97973 10.6667 9.33335C10.6667 9.68698 10.8071 10.0261 11.0572 10.2762C11.3072 10.5262 11.6464 10.6667 12 10.6667V10.6667ZM12 16H13.3333C13.687 16 14.0261 15.8595 14.2761 15.6095C14.5262 15.3594 14.6667 15.0203 14.6667 14.6667C14.6667 14.3131 14.5262 13.9739 14.2761 13.7239C14.0261 13.4738 13.687 13.3334 13.3333 13.3334H12C11.6464 13.3334 11.3072 13.4738 11.0572 13.7239C10.8071 13.9739 10.6667 14.3131 10.6667 14.6667C10.6667 15.0203 10.8071 15.3594 11.0572 15.6095C11.3072 15.8595 11.6464 16 12 16V16ZM28 26.6667H26.6667V4.00002C26.6667 3.6464 26.5262 3.30726 26.2761 3.05721C26.0261 2.80716 25.687 2.66669 25.3333 2.66669H6.66666C6.31304 2.66669 5.9739 2.80716 5.72386 3.05721C5.47381 3.30726 5.33333 3.6464 5.33333 4.00002V26.6667H4C3.64638 26.6667 3.30724 26.8072 3.05719 27.0572C2.80714 27.3073 2.66666 27.6464 2.66666 28C2.66666 28.3536 2.80714 28.6928 3.05719 28.9428C3.30724 29.1929 3.64638 29.3334 4 29.3334H28C28.3536 29.3334 28.6928 29.1929 28.9428 28.9428C29.1929 28.6928 29.3333 28.3536 29.3333 28C29.3333 27.6464 29.1929 27.3073 28.9428 27.0572C28.6928 26.8072 28.3536 26.6667 28 26.6667ZM17.3333 26.6667H14.6667V21.3334H17.3333V26.6667ZM24 26.6667H20V20C20 19.6464 19.8595 19.3073 19.6095 19.0572C19.3594 18.8072 19.0203 18.6667 18.6667 18.6667H13.3333C12.9797 18.6667 12.6406 18.8072 12.3905 19.0572C12.1405 19.3073 12 19.6464 12 20V26.6667H8V5.33335H24V26.6667Z" fill="black"/>
</svg>
