<svg width="32" height="32" viewBox="0 0 32 32" fill="none" xmlns="http://www.w3.org/2000/svg">
<path d="M11.3467 16.64C11.083 16.64 10.8252 16.7182 10.6059 16.8647C10.3866 17.0112 10.2158 17.2195 10.1148 17.4631C10.0139 17.7067 9.98751 17.9748 10.039 18.2335C10.0904 18.4921 10.2174 18.7297 10.4039 18.9162C10.5903 19.1026 10.8279 19.2296 11.0866 19.2811C11.3452 19.3325 11.6133 19.3061 11.8569 19.2052C12.1006 19.1043 12.3088 18.9334 12.4553 18.7141C12.6018 18.4948 12.68 18.2371 12.68 17.9733C12.68 17.6197 12.5395 17.2806 12.2895 17.0305C12.0394 16.7805 11.7003 16.64 11.3467 16.64ZM11.3467 10.6667C11.083 10.6667 10.8252 10.7449 10.6059 10.8914C10.3866 11.0379 10.2158 11.2461 10.1148 11.4898C10.0139 11.7334 9.98751 12.0015 10.039 12.2601C10.0904 12.5188 10.2174 12.7563 10.4039 12.9428C10.5903 13.1293 10.8279 13.2563 11.0866 13.3077C11.3452 13.3592 11.6133 13.3328 11.8569 13.2318C12.1006 13.1309 12.3088 12.96 12.4553 12.7408C12.6018 12.5215 12.68 12.2637 12.68 12C12.68 11.6464 12.5395 11.3072 12.2895 11.0572C12.0394 10.8072 11.7003 10.6667 11.3467 10.6667ZM16 13.3333C15.6464 13.3333 15.3072 13.4738 15.0572 13.7239C14.8071 13.9739 14.6667 14.3131 14.6667 14.6667V16C14.6667 16.3536 14.8071 16.6928 15.0572 16.9428C15.3072 17.1929 15.6464 17.3333 16 17.3333C16.3536 17.3333 16.6928 17.1929 16.9428 16.9428C17.1929 16.6928 17.3333 16.3536 17.3333 16V14.6667C17.3333 14.3131 17.1929 13.9739 16.9428 13.7239C16.6928 13.4738 16.3536 13.3333 16 13.3333ZM27.3333 11.4267C26.8734 11.162 26.3654 10.9915 25.8389 10.9252C25.3124 10.8588 24.7779 10.8978 24.2667 11.04C23.7346 11.1825 23.2391 11.4371 22.8133 11.7867L7.34667 2.84001C7.14398 2.72299 6.91405 2.66138 6.68001 2.66138C6.44596 2.66138 6.21603 2.72299 6.01334 2.84001C5.80738 2.95578 5.63589 3.12419 5.51641 3.32801C5.39692 3.53184 5.33375 3.76375 5.33334 4.00001V21.56C4.54648 21.8254 3.86423 22.3339 3.38497 23.012C2.90571 23.6902 2.65419 24.503 2.66667 25.3333C2.6663 26.376 3.07306 27.3776 3.80028 28.1247C4.52751 28.8719 5.51774 29.3055 6.56001 29.3333H7.33334C11.7023 29.3231 15.9908 28.1569 19.7634 25.9534C23.5359 23.7498 26.6583 20.5872 28.8133 16.7867C29.3111 15.8773 29.4363 14.8103 29.1627 13.8104C28.8891 12.8105 28.238 11.9559 27.3467 11.4267H27.3333ZM8.00001 6.30668L21.1867 13.92C19.7237 16.103 17.768 17.9113 15.4773 19.1991C13.1867 20.4869 10.6253 21.218 8.00001 21.3333V6.30668ZM26.4933 15.48C24.5139 18.9676 21.6232 21.851 18.1306 23.8216C14.6381 25.7922 10.6753 26.7756 6.66667 26.6667C6.31305 26.6667 5.97391 26.5262 5.72386 26.2762C5.47382 26.0261 5.33334 25.687 5.33334 25.3333C5.3323 25.1547 5.36717 24.9777 5.43588 24.8127C5.50459 24.6478 5.60575 24.4984 5.73334 24.3733C5.98383 24.1319 6.31877 23.9979 6.66667 24H7.34667C10.7703 23.9986 14.1321 23.0881 17.0885 21.3616C20.045 19.6351 22.4899 17.1545 24.1733 14.1733C24.2543 14.0271 24.3649 13.8994 24.498 13.7983C24.6312 13.6973 24.784 13.6252 24.9467 13.5867C25.2829 13.4944 25.6418 13.5375 25.9467 13.7067C26.2526 13.8711 26.4823 14.1484 26.5869 14.4796C26.6914 14.8108 26.6627 15.1697 26.5067 15.48H26.4933Z" fill="black"/>
</svg>
