<svg width="32" height="32" viewBox="0 0 32 32" fill="none" xmlns="http://www.w3.org/2000/svg">
<path d="M12 15.6134L12.3867 15.2134L12.7733 15.6134C12.8973 15.7383 13.0447 15.8375 13.2072 15.9052C13.3697 15.9729 13.544 16.0078 13.72 16.0078C13.896 16.0078 14.0703 15.9729 14.2328 15.9052C14.3952 15.8375 14.5427 15.7383 14.6667 15.6134C14.7916 15.4894 14.8908 15.3419 14.9585 15.1795C15.0262 15.017 15.0611 14.8427 15.0611 14.6667C15.0611 14.4907 15.0262 14.3164 14.9585 14.1539C14.8908 13.9914 14.7916 13.844 14.6667 13.72L14.2667 13.3334L14.6667 12.9467C14.9177 12.6885 15.056 12.3412 15.051 11.9812C15.046 11.6211 14.8981 11.2778 14.64 11.0267C14.3819 10.7756 14.0345 10.6374 13.6745 10.6424C13.3144 10.6474 12.9711 10.7952 12.72 11.0534L12.3333 11.4534L12 11.0534C11.7489 10.7952 11.4056 10.6474 11.0455 10.6424C10.6854 10.6374 10.3381 10.7756 10.08 11.0267C9.82185 11.2778 9.67402 11.6211 9.66902 11.9812C9.66402 12.3412 9.80226 12.6885 10.0533 12.9467L10.4533 13.3334L10.0533 13.72C9.92836 13.844 9.82917 13.9914 9.76147 14.1539C9.69378 14.3164 9.65893 14.4907 9.65893 14.6667C9.65893 14.8427 9.69378 15.017 9.76147 15.1795C9.82917 15.3419 9.92836 15.4894 10.0533 15.6134C10.1773 15.7383 10.3247 15.8375 10.4872 15.9052C10.6497 15.9729 10.824 16.0078 11 16.0078C11.176 16.0078 11.3503 15.9729 11.5128 15.9052C11.6752 15.8375 11.8227 15.7383 11.9467 15.6134H12ZM20 18.6667H12C11.6464 18.6667 11.3072 18.8072 11.0572 19.0572C10.8071 19.3073 10.6667 19.6464 10.6667 20C10.6667 20.3536 10.8071 20.6928 11.0572 20.9428C11.3072 21.1929 11.6464 21.3334 12 21.3334H20C20.3536 21.3334 20.6928 21.1929 20.9428 20.9428C21.1929 20.6928 21.3333 20.3536 21.3333 20C21.3333 19.6464 21.1929 19.3073 20.9428 19.0572C20.6928 18.8072 20.3536 18.6667 20 18.6667ZM16 2.66669C13.3629 2.66669 10.785 3.44867 8.59239 4.91376C6.39974 6.37884 4.69077 8.46123 3.6816 10.8976C2.67243 13.3339 2.40839 16.0148 2.92286 18.6012C3.43733 21.1876 4.70721 23.5634 6.57191 25.4281C8.43661 27.2928 10.8124 28.5627 13.3988 29.0772C15.9852 29.5916 18.6661 29.3276 21.1024 28.3184C23.5388 27.3092 25.6212 25.6003 27.0863 23.4076C28.5513 21.215 29.3333 18.6371 29.3333 16C29.3333 14.2491 28.9885 12.5152 28.3184 10.8976C27.6483 9.2799 26.6662 7.81004 25.4281 6.57193C24.19 5.33382 22.7201 4.35169 21.1024 3.68163C19.4848 3.01156 17.751 2.66669 16 2.66669V2.66669ZM16 26.6667C13.8903 26.6667 11.828 26.0411 10.0739 24.869C8.31979 23.697 6.95262 22.0311 6.14528 20.082C5.33795 18.1329 5.12671 15.9882 5.53829 13.9191C5.94986 11.8499 6.96576 9.94931 8.45752 8.45755C9.94928 6.96579 11.8499 5.94989 13.919 5.53831C15.9882 5.12674 18.1329 5.33797 20.082 6.14531C22.031 6.95264 23.6969 8.31981 24.869 10.0739C26.0411 11.8281 26.6667 13.8904 26.6667 16C26.6667 18.829 25.5429 21.5421 23.5425 23.5425C21.5421 25.5429 18.829 26.6667 16 26.6667V26.6667ZM22.6667 11.0534C22.5427 10.9284 22.3952 10.8292 22.2328 10.7615C22.0703 10.6938 21.896 10.659 21.72 10.659C21.544 10.659 21.3697 10.6938 21.2072 10.7615C21.0447 10.8292 20.8973 10.9284 20.7733 11.0534L20.3867 11.4534L20 11.0534C19.7489 10.8023 19.4084 10.6612 19.0533 10.6612C18.6983 10.6612 18.3577 10.8023 18.1067 11.0534C17.8556 11.3044 17.7145 11.645 17.7145 12C17.7145 12.3551 17.8556 12.6956 18.1067 12.9467L18.5067 13.3334L18.1067 13.72C17.9817 13.844 17.8825 13.9914 17.8148 14.1539C17.7471 14.3164 17.7123 14.4907 17.7123 14.6667C17.7123 14.8427 17.7471 15.017 17.8148 15.1795C17.8825 15.3419 17.9817 15.4894 18.1067 15.6134C18.2306 15.7383 18.3781 15.8375 18.5406 15.9052C18.703 15.9729 18.8773 16.0078 19.0533 16.0078C19.2293 16.0078 19.4036 15.9729 19.5661 15.9052C19.7286 15.8375 19.876 15.7383 20 15.6134L20.3867 15.2134L20.7733 15.6134C20.8973 15.7383 21.0447 15.8375 21.2072 15.9052C21.3697 15.9729 21.544 16.0078 21.72 16.0078C21.896 16.0078 22.0703 15.9729 22.2328 15.9052C22.3952 15.8375 22.5427 15.7383 22.6667 15.6134C22.7916 15.4894 22.8908 15.3419 22.9585 15.1795C23.0262 15.017 23.0611 14.8427 23.0611 14.6667C23.0611 14.4907 23.0262 14.3164 22.9585 14.1539C22.8908 13.9914 22.7916 13.844 22.6667 13.72L22.2667 13.3334L22.6667 12.9467C22.7916 12.8227 22.8908 12.6753 22.9585 12.5128C23.0262 12.3503 23.0611 12.176 23.0611 12C23.0611 11.824 23.0262 11.6497 22.9585 11.4873C22.8908 11.3248 22.7916 11.1773 22.6667 11.0534Z" fill="black"/>
</svg>
