<svg width="32" height="32" viewBox="0 0 32 32" fill="none" xmlns="http://www.w3.org/2000/svg">
<path d="M30.655 5.26696C30.6551 5.03145 30.5928 4.80011 30.4745 4.59649C30.3562 4.39287 30.186 4.22425 29.9813 4.1078C29.7766 3.99136 29.5447 3.93124 29.3092 3.93358C29.0737 3.93592 28.843 4.00063 28.6406 4.12112C27.8602 4.58564 27.02 4.94137 26.1433 5.17845C24.8913 4.1041 23.2944 3.51619 21.6446 3.5222C19.8347 3.52428 18.0965 4.22966 16.7969 5.48938C15.4974 6.74909 14.7382 8.46455 14.6798 10.2735C11.1118 9.70452 7.87797 7.84221 5.59506 5.04169C5.45751 4.87481 5.28184 4.74345 5.08287 4.65869C4.88391 4.57393 4.66748 4.53826 4.45183 4.55469C4.23631 4.57244 4.02836 4.64242 3.84596 4.75858C3.66355 4.87473 3.51219 5.03357 3.40495 5.22136C2.85499 6.18111 2.53913 7.25704 2.48302 8.36177C2.42691 9.4665 2.63214 10.5689 3.08203 11.5794L3.07943 11.582C2.87723 11.7066 2.71036 11.8809 2.59477 12.0884C2.47919 12.2958 2.41876 12.5295 2.41927 12.7669C2.41682 12.9628 2.42858 13.1587 2.45443 13.3529C2.59062 15.0306 3.33414 16.6009 4.54558 17.7695C4.4634 17.9261 4.41324 18.0975 4.39804 18.2736C4.38283 18.4498 4.40289 18.6272 4.45703 18.7956C4.98519 20.4411 6.10836 21.8303 7.60678 22.6914C6.08443 23.2801 4.44067 23.4853 2.82031 23.2891C2.52041 23.2514 2.21662 23.3168 1.95878 23.4746C1.70093 23.6323 1.50435 23.873 1.40127 24.1571C1.29818 24.4412 1.29473 24.752 1.39146 25.0383C1.48819 25.3247 1.67938 25.5697 1.93365 25.7331C4.72044 27.528 7.96522 28.4822 11.28 28.4818C15.039 28.5241 18.7066 27.3229 21.7123 25.0651C24.718 22.8072 26.8933 19.6194 27.8997 15.9974C28.3705 14.4195 28.6108 12.782 28.6133 11.1354C28.6133 11.0482 28.6133 10.9584 28.612 10.8685C29.3082 10.1178 29.8474 9.23559 30.1982 8.27372C30.5491 7.31184 30.7043 6.28962 30.655 5.26696V5.26696ZM26.2461 9.54951C26.0259 9.80997 25.9144 10.1452 25.9349 10.4857C25.9479 10.7057 25.9466 10.927 25.9466 11.1354C25.9439 12.5268 25.74 13.9105 25.3412 15.2435C24.5192 18.3254 22.6867 21.0422 20.1373 22.959C17.5878 24.8757 14.4689 25.8815 11.28 25.8151C10.1345 25.8155 8.99296 25.6809 7.87897 25.4141C9.29951 24.9563 10.6278 24.2505 11.8021 23.3295C12.0184 23.1591 12.1767 22.9261 12.2553 22.6622C12.3339 22.3984 12.3289 22.1167 12.241 21.8558C12.1532 21.5949 11.9867 21.3676 11.7645 21.205C11.5423 21.0425 11.2753 20.9527 11 20.9479C9.89178 20.9307 8.83351 20.484 8.04818 19.7019C8.24741 19.6641 8.44533 19.6172 8.64194 19.5612C8.92995 19.4792 9.182 19.3027 9.35749 19.0601C9.53298 18.8174 9.6217 18.5228 9.60937 18.2236C9.59704 17.9244 9.48438 17.638 9.28952 17.4107C9.09466 17.1833 8.82895 17.0281 8.53517 16.9701C7.89188 16.843 7.28656 16.5694 6.76625 16.1703C6.24594 15.7713 5.82467 15.2576 5.53517 14.6693C5.77614 14.7022 6.01865 14.7226 6.26173 14.7305C6.5505 14.7349 6.83319 14.6473 7.06889 14.4804C7.3046 14.3135 7.48112 14.0759 7.57293 13.8021C7.6609 13.5258 7.65637 13.2283 7.56003 12.9548C7.46369 12.6813 7.2808 12.4467 7.03907 12.2865C6.4526 11.8958 5.9722 11.3657 5.64088 10.7438C5.30956 10.1218 5.13768 9.42738 5.14063 8.72269C5.14063 8.63416 5.14323 8.54561 5.14845 8.45837C8.13679 11.2454 12.0129 12.8883 16.0938 13.0977C16.2998 13.1058 16.5049 13.067 16.6937 12.9842C16.8825 12.9014 17.05 12.7768 17.1836 12.6198C17.3159 12.4613 17.4095 12.2742 17.4572 12.0734C17.5048 11.8725 17.5052 11.6633 17.4583 11.4623C17.382 11.1441 17.3432 10.8181 17.3424 10.4909C17.3436 9.3503 17.7973 8.25675 18.6038 7.45021C19.4104 6.64367 20.5039 6.19003 21.6445 6.18883C22.2314 6.18726 22.8122 6.30736 23.3503 6.54156C23.8884 6.77575 24.3721 7.11896 24.7708 7.54951C24.9246 7.71495 25.1182 7.8383 25.3331 7.90782C25.548 7.97734 25.7771 7.99072 25.9987 7.94669C26.5464 7.8401 27.0863 7.69655 27.6146 7.51701C27.2542 8.25431 26.7937 8.93828 26.2461 9.54951V9.54951Z" fill="black"/>
</svg>
