<svg width="32" height="32" viewBox="0 0 32 32" fill="none" xmlns="http://www.w3.org/2000/svg">
<path d="M11.2904 11.1927L11.2874 11.1952L11.2845 11.1979L11.2904 11.1927ZM24.5625 10.944C24.4697 10.8546 24.3668 10.7764 24.2558 10.7109C24.0987 10.6185 23.9244 10.5592 23.7435 10.5369C23.5626 10.5145 23.379 10.5294 23.2041 10.5808C23.0293 10.6322 22.8668 10.7189 22.7267 10.8356C22.5867 10.9522 22.4721 11.0964 22.39 11.2591C21.9307 12.164 21.2972 12.9694 20.526 13.6289C20.6439 12.9644 20.7034 12.2908 20.7037 11.6159C20.7062 9.56269 20.1645 7.5455 19.1339 5.7697C18.1033 3.99391 16.6205 2.52294 14.8365 1.50655C14.64 1.39515 14.4184 1.3355 14.1925 1.3332C13.9666 1.3309 13.7438 1.38603 13.5451 1.49341C13.3463 1.60079 13.1781 1.7569 13.0562 1.9471C12.9343 2.1373 12.8628 2.35534 12.8482 2.58078C12.7736 3.84501 12.4431 5.08093 11.8767 6.21367C11.3104 7.3464 10.5199 8.35236 9.55333 9.17059L9.24604 9.42059C8.23525 10.1007 7.34056 10.9391 6.5963 11.9037C5.43939 13.3611 4.63796 15.0681 4.25558 16.8892C3.87319 18.7103 3.92037 20.5955 4.39336 22.3952C4.86636 24.1949 5.75216 25.8597 6.98053 27.2575C8.20889 28.6553 9.74603 29.7476 11.47 30.4479C11.6725 30.5307 11.8921 30.5623 12.1097 30.54C12.3272 30.5178 12.5359 30.4423 12.7174 30.3204C12.8989 30.1984 13.0476 30.0336 13.1504 29.8406C13.2531 29.6476 13.3068 29.4322 13.3067 29.2136C13.3057 29.0721 13.2833 28.9316 13.2403 28.7969C12.942 27.6756 12.8561 26.5084 12.987 25.3555C14.2486 27.7351 16.2738 29.6213 18.737 30.711C19.0377 30.8455 19.3775 30.8636 19.6908 30.7617C21.6369 30.1336 23.39 29.0183 24.7836 27.5218C26.1773 26.0253 27.1651 24.1973 27.6533 22.2115C28.1414 20.2257 28.1137 18.148 27.5728 16.1759C27.0318 14.2038 25.9956 12.4028 24.5625 10.944V10.944ZM19.3561 28.0521C18.1939 27.4631 17.1686 26.636 16.347 25.6247C15.5254 24.6134 14.9258 23.4405 14.5872 22.1823C14.4838 21.7587 14.4039 21.3296 14.3477 20.8972C14.3096 20.6218 14.1864 20.3651 13.9953 20.1632C13.8042 19.9613 13.5548 19.8241 13.2819 19.7708C13.1978 19.7543 13.1123 19.746 13.0267 19.7461C12.7923 19.746 12.5621 19.8077 12.3592 19.925C12.1563 20.0423 11.9879 20.211 11.8711 20.4141C10.7648 22.3223 10.2084 24.4995 10.2636 26.7045C9.29062 25.948 8.47744 25.0058 7.8712 23.9327C7.26497 22.8596 6.87776 21.6769 6.732 20.453C6.58624 19.2291 6.68483 17.9885 7.02207 16.803C7.3593 15.6176 7.92847 14.5108 8.69658 13.5469C9.2798 12.7894 9.98337 12.1326 10.7793 11.6029C10.8137 11.5807 10.8468 11.5563 10.8782 11.53C10.8782 11.53 11.2738 11.2027 11.2873 11.1952C13.1869 9.58849 14.538 7.42922 15.1523 5.01829C16.6051 6.36126 17.5738 8.14632 17.908 10.0963C18.2422 12.0463 17.9232 14.052 17.0006 15.8021C16.8787 16.0357 16.8287 16.3001 16.8569 16.562C16.8851 16.8239 16.9902 17.0716 17.159 17.2739C17.3278 17.4761 17.5528 17.6238 17.8054 17.6984C18.0581 17.7729 18.3272 17.771 18.5787 17.6928C20.6211 17.0526 22.4183 15.802 23.7285 14.1095C24.5159 15.2725 25.0307 16.5983 25.2345 17.988C25.4383 19.3776 25.3259 20.7954 24.9056 22.1355C24.4853 23.4757 23.768 24.7038 22.8071 25.7282C21.8463 26.7526 20.6666 27.547 19.3561 28.0521L19.3561 28.0521Z" fill="black"/>
</svg>
