<svg width="30" height="30" viewBox="0 0 30 30" fill="none" xmlns="http://www.w3.org/2000/svg">
<path d="M27.0757 12.8124L15.8257 2.81238C15.5976 2.61198 15.3043 2.50146 15.0007 2.50146C14.6971 2.50146 14.4038 2.61198 14.1757 2.81238L2.9257 12.8124C2.73449 12.9815 2.59966 13.2052 2.53932 13.4532C2.47899 13.7012 2.49604 13.9618 2.5882 14.1999C2.67885 14.4348 2.83833 14.6369 3.04576 14.7796C3.25319 14.9224 3.4989 14.9991 3.7507 14.9999H5.0007V26.2499C5.0007 26.5814 5.13239 26.8993 5.36681 27.1338C5.60124 27.3682 5.91918 27.4999 6.2507 27.4999H23.7507C24.0822 27.4999 24.4002 27.3682 24.6346 27.1338C24.869 26.8993 25.0007 26.5814 25.0007 26.2499V14.9999H26.2507C26.5025 14.9991 26.7482 14.9224 26.9556 14.7796C27.1631 14.6369 27.3225 14.4348 27.4132 14.1999C27.5054 13.9618 27.5224 13.7012 27.4621 13.4532C27.4017 13.2052 27.2669 12.9815 27.0757 12.8124V12.8124ZM16.2507 24.9999H13.7507V21.2499C13.7507 20.9184 13.8824 20.6004 14.1168 20.366C14.3512 20.1316 14.6692 19.9999 15.0007 19.9999C15.3322 19.9999 15.6502 20.1316 15.8846 20.366C16.119 20.6004 16.2507 20.9184 16.2507 21.2499V24.9999ZM22.5007 24.9999H18.7507V21.2499C18.7507 20.2553 18.3556 19.3015 17.6523 18.5982C16.9491 17.895 15.9953 17.4999 15.0007 17.4999C14.0061 17.4999 13.0523 17.895 12.349 18.5982C11.6458 19.3015 11.2507 20.2553 11.2507 21.2499V24.9999H7.5007V14.9999H22.5007V24.9999ZM7.0382 12.4999L15.0007 5.42488L22.9632 12.4999H7.0382Z" fill="#898989"/>
</svg>
