<svg width="30" height="30" viewBox="0 0 30 30" fill="none" xmlns="http://www.w3.org/2000/svg">
<path d="M22.5 8.75011H22.0625C22.3478 8.16606 22.4973 7.52509 22.5 6.87511C22.5038 6.00427 22.2468 5.15222 21.7623 4.42865C21.2777 3.70507 20.5876 3.14309 19.7809 2.81503C18.9742 2.48697 18.0878 2.40786 17.2358 2.58787C16.3837 2.76789 15.6051 3.19879 15 3.82511C14.3949 3.19879 13.6163 2.76789 12.7642 2.58787C11.9122 2.40786 11.0258 2.48697 10.2191 2.81503C9.41237 3.14309 8.72232 3.70507 8.23774 4.42865C7.75315 5.15222 7.49622 6.00427 7.5 6.87511C7.50267 7.52509 7.65223 8.16606 7.9375 8.75011H7.5C6.50544 8.75011 5.55161 9.1452 4.84835 9.84846C4.14509 10.5517 3.75 11.5055 3.75 12.5001V15.0001C3.75 15.3316 3.8817 15.6496 4.11612 15.884C4.35054 16.1184 4.66848 16.2501 5 16.2501H6.25V23.7501C6.25 24.7447 6.64509 25.6985 7.34835 26.4018C8.05161 27.105 9.00544 27.5001 10 27.5001H20C20.9946 27.5001 21.9484 27.105 22.6517 26.4018C23.3549 25.6985 23.75 24.7447 23.75 23.7501V16.2501H25C25.3315 16.2501 25.6495 16.1184 25.8839 15.884C26.1183 15.6496 26.25 15.3316 26.25 15.0001V12.5001C26.25 11.5055 25.8549 10.5517 25.1517 9.84846C24.4484 9.1452 23.4946 8.75011 22.5 8.75011ZM13.75 25.0001H10C9.66848 25.0001 9.35054 24.8684 9.11612 24.634C8.8817 24.3996 8.75 24.0816 8.75 23.7501V16.2501H13.75V25.0001ZM13.75 13.7501H6.25V12.5001C6.25 12.1686 6.3817 11.8506 6.61612 11.6162C6.85054 11.3818 7.16848 11.2501 7.5 11.2501H13.75V13.7501ZM13.75 8.75011H11.875C11.5042 8.75011 11.1416 8.64014 10.8333 8.43411C10.525 8.22809 10.2846 7.93525 10.1427 7.59264C10.0008 7.25003 9.96368 6.87303 10.036 6.50931C10.1084 6.1456 10.287 5.81151 10.5492 5.54928C10.8114 5.28706 11.1455 5.10848 11.5092 5.03614C11.8729 4.96379 12.2499 5.00092 12.5925 5.14283C12.9351 5.28475 13.228 5.52507 13.434 5.83341C13.64 6.14176 13.75 6.50427 13.75 6.87511V8.75011ZM16.25 6.87511C16.25 6.50427 16.36 6.14176 16.566 5.83341C16.772 5.52507 17.0649 5.28475 17.4075 5.14283C17.7501 5.00092 18.1271 4.96379 18.4908 5.03614C18.8545 5.10848 19.1886 5.28706 19.4508 5.54928C19.713 5.81151 19.8916 6.1456 19.964 6.50931C20.0363 6.87303 19.9992 7.25003 19.8573 7.59264C19.7154 7.93525 19.475 8.22809 19.1667 8.43411C18.8584 8.64014 18.4958 8.75011 18.125 8.75011H16.25V6.87511ZM21.25 23.7501C21.25 24.0816 21.1183 24.3996 20.8839 24.634C20.6495 24.8684 20.3315 25.0001 20 25.0001H16.25V16.2501H21.25V23.7501ZM23.75 13.7501H16.25V11.2501H22.5C22.8315 11.2501 23.1495 11.3818 23.3839 11.6162C23.6183 11.8506 23.75 12.1686 23.75 12.5001V13.7501Z" fill="#898989"/>
</svg>
