<svg width="30" height="30" viewBox="0 0 30 30" fill="none" xmlns="http://www.w3.org/2000/svg">
<path d="M11.875 13.1251H15C15.3315 13.1251 15.6495 12.9934 15.8839 12.759C16.1183 12.5245 16.25 12.2066 16.25 11.8751C16.25 11.5436 16.1183 11.2256 15.8839 10.9912C15.6495 10.7568 15.3315 10.6251 15 10.6251H13.75V10.0001C13.75 9.66856 13.6183 9.35062 13.3839 9.1162C13.1495 8.88178 12.8315 8.75009 12.5 8.75009C12.1685 8.75009 11.8505 8.88178 11.6161 9.1162C11.3817 9.35062 11.25 9.66856 11.25 10.0001V10.6876C10.4905 10.8418 9.81546 11.2727 9.35583 11.8967C8.8962 12.5206 8.68481 13.2931 8.76269 14.0641C8.84057 14.8352 9.20218 15.5498 9.7773 16.0692C10.3524 16.5887 11.1 16.8759 11.875 16.8751H13.125C13.2908 16.8751 13.4497 16.9409 13.567 17.0581C13.6842 17.1754 13.75 17.3343 13.75 17.5001C13.75 17.6658 13.6842 17.8248 13.567 17.942C13.4497 18.0592 13.2908 18.1251 13.125 18.1251H10C9.66849 18.1251 9.35055 18.2568 9.11613 18.4912C8.88171 18.7256 8.75001 19.0436 8.75001 19.3751C8.75001 19.7066 8.88171 20.0245 9.11613 20.259C9.35055 20.4934 9.66849 20.6251 10 20.6251H11.25V21.2501C11.25 21.5816 11.3817 21.8995 11.6161 22.134C11.8505 22.3684 12.1685 22.5001 12.5 22.5001C12.8315 22.5001 13.1495 22.3684 13.3839 22.134C13.6183 21.8995 13.75 21.5816 13.75 21.2501V20.5626C14.5095 20.4084 15.1846 19.9775 15.6442 19.3535C16.1038 18.7296 16.3152 17.9571 16.2373 17.186C16.1594 16.415 15.7978 15.7004 15.2227 15.1809C14.6476 14.6615 13.9 14.3743 13.125 14.3751H11.875C11.7092 14.3751 11.5503 14.3092 11.4331 14.192C11.3159 14.0748 11.25 13.9158 11.25 13.7501C11.25 13.5843 11.3159 13.4254 11.4331 13.3081C11.5503 13.1909 11.7092 13.1251 11.875 13.1251ZM26.25 15.0001H22.5V3.75009C22.5009 3.52982 22.4435 3.31324 22.3338 3.12227C22.224 2.9313 22.0658 2.77272 21.875 2.66259C21.685 2.55288 21.4694 2.49512 21.25 2.49512C21.0306 2.49512 20.815 2.55288 20.625 2.66259L16.875 4.81259L13.125 2.66259C12.935 2.55288 12.7194 2.49512 12.5 2.49512C12.2806 2.49512 12.065 2.55288 11.875 2.66259L8.12501 4.81259L4.37501 2.66259C4.18499 2.55288 3.96943 2.49512 3.75001 2.49512C3.53059 2.49512 3.31503 2.55288 3.12501 2.66259C2.93425 2.77272 2.77599 2.9313 2.66623 3.12227C2.55648 3.31324 2.49914 3.52982 2.50001 3.75009V23.7501C2.50001 24.7446 2.8951 25.6985 3.59836 26.4017C4.30162 27.105 5.25545 27.5001 6.25001 27.5001H23.75C24.7446 27.5001 25.6984 27.105 26.4017 26.4017C27.1049 25.6985 27.5 24.7446 27.5 23.7501V16.2501C27.5 15.9186 27.3683 15.6006 27.1339 15.3662C26.8995 15.1318 26.5815 15.0001 26.25 15.0001ZM6.25001 25.0001C5.91849 25.0001 5.60055 24.8684 5.36613 24.634C5.13171 24.3995 5.00001 24.0816 5.00001 23.7501V5.91259L7.50001 7.33759C7.69293 7.43835 7.90736 7.49098 8.12501 7.49098C8.34266 7.49098 8.55709 7.43835 8.75001 7.33759L12.5 5.18759L16.25 7.33759C16.4429 7.43835 16.6574 7.49098 16.875 7.49098C17.0927 7.49098 17.3071 7.43835 17.5 7.33759L20 5.91259V23.7501C20.0034 24.1765 20.0795 24.5992 20.225 25.0001H6.25001ZM25 23.7501C25 24.0816 24.8683 24.3995 24.6339 24.634C24.3995 24.8684 24.0815 25.0001 23.75 25.0001C23.4185 25.0001 23.1005 24.8684 22.8661 24.634C22.6317 24.3995 22.5 24.0816 22.5 23.7501V17.5001H25V23.7501Z" fill="#898989"/>
</svg>
