<svg width="30" height="30" viewBox="0 0 30 30" fill="none" xmlns="http://www.w3.org/2000/svg">
<path d="M12.5874 25.6287C12.5874 25.4454 12.547 25.2643 12.4692 25.0983C12.3914 24.9323 12.2781 24.7854 12.1372 24.6682C11.9963 24.5509 11.8313 24.466 11.654 24.4195C11.4767 24.3731 11.2913 24.3662 11.111 24.3994C9.47463 24.6997 7.40859 24.7449 6.85926 23.2019C6.38027 22.0069 5.58686 20.9638 4.56313 20.1832C4.49008 20.1434 4.42047 20.0977 4.355 20.0464C4.26541 19.8101 4.10627 19.6065 3.89858 19.4624C3.69089 19.3184 3.44442 19.2407 3.19166 19.2396H3.18556C2.85506 19.2394 2.53797 19.3703 2.3037 19.6034C2.06943 19.8365 1.93706 20.153 1.93556 20.4835C1.93068 21.5027 2.94931 22.1558 3.36256 22.3768C3.84987 22.8664 4.2415 23.4427 4.51735 24.076C4.97268 25.3553 6.29591 27.2962 10.0996 27.046C10.1009 27.0899 10.1021 27.1314 10.1027 27.1693L10.1082 27.5037C10.1082 27.8353 10.2399 28.1532 10.4743 28.3876C10.7087 28.6221 11.0266 28.7537 11.3582 28.7537C11.6897 28.7537 12.0076 28.6221 12.242 28.3876C12.4765 28.1532 12.6082 27.8353 12.6082 27.5037L12.6021 27.1058C12.596 26.8689 12.5874 26.5259 12.5874 25.6287ZM25.9212 6.72117C25.9608 6.56492 25.9999 6.39158 26.0341 6.19627C26.2363 4.80326 26.06 3.38151 25.5238 2.08002C25.4562 1.91035 25.3522 1.75753 25.2193 1.63228C25.0863 1.50702 24.9276 1.41236 24.7542 1.35494C24.3092 1.20479 22.6662 0.909373 19.5241 2.91744C16.9123 2.3028 14.1934 2.3028 11.5816 2.91744C8.45229 0.938785 6.81776 1.20729 6.37709 1.34889C6.19942 1.40399 6.03633 1.49814 5.89978 1.62446C5.76322 1.75077 5.65666 1.90604 5.5879 2.07889C5.04078 3.40536 4.86645 4.8561 5.08375 6.27443C5.11428 6.43435 5.14723 6.58206 5.18141 6.71755C4.14588 8.09685 3.5943 9.77925 3.6122 11.5039C3.60883 11.8887 3.62655 12.2734 3.6653 12.6563C4.0828 18.4094 7.8328 20.1367 10.4457 20.73C10.3914 20.8863 10.3419 21.0535 10.298 21.2305C10.2197 21.5521 10.2721 21.8917 10.4437 22.1747C10.6154 22.4577 10.8923 22.6611 11.2137 22.7403C11.5351 22.8195 11.8748 22.768 12.1583 22.5971C12.4418 22.4262 12.6459 22.1498 12.726 21.8286C12.8055 21.4121 13.0094 21.0295 13.3107 20.7312C13.4929 20.5717 13.6248 20.3627 13.6904 20.1296C13.756 19.8965 13.7524 19.6493 13.6801 19.4182C13.6078 19.1871 13.4699 18.982 13.2832 18.8278C13.0964 18.6737 12.8689 18.5771 12.6283 18.5498C8.31069 18.0567 6.43629 16.2976 6.15431 12.4268C6.12308 12.1202 6.10902 11.8121 6.1122 11.5039C6.09215 10.2748 6.49824 9.07653 7.26149 8.11282C7.33818 8.01235 7.41987 7.91579 7.50624 7.82351C7.65928 7.65226 7.76217 7.44216 7.80363 7.21627C7.84509 6.99037 7.8235 6.75743 7.74124 6.543C7.65691 6.31741 7.59198 6.08504 7.54715 5.84841C7.44532 5.17556 7.47872 4.48915 7.6454 3.82936C8.73182 4.1362 9.7543 4.63566 10.6642 5.30396C10.8146 5.40418 10.9849 5.47087 11.1634 5.49952C11.3419 5.52816 11.5244 5.51809 11.6987 5.46999C14.2251 4.78436 16.8886 4.78479 19.4148 5.47123C19.59 5.51929 19.7735 5.52878 19.9527 5.49907C20.132 5.46936 20.3026 5.40114 20.453 5.29912C21.3586 4.62805 22.3768 4.12412 23.4596 3.81109C23.6255 4.45503 23.6626 5.12541 23.5688 5.78373C23.5235 6.04316 23.4528 6.29748 23.3576 6.54302C23.2754 6.75745 23.2538 6.9904 23.2952 7.21629C23.3367 7.44218 23.4396 7.65229 23.5926 7.82354C23.6891 7.93217 23.7855 8.04936 23.8722 8.15922C24.63 9.10662 25.0292 10.2911 24.9995 11.5039C25.0018 11.8284 24.9861 12.1528 24.9525 12.4756C24.6773 16.2952 22.7956 18.0554 18.4578 18.5498C18.2171 18.5772 17.9896 18.674 17.8029 18.8283C17.6161 18.9826 17.4783 19.1879 17.4061 19.4191C17.3339 19.6503 17.3304 19.8975 17.396 20.1307C17.4617 20.3639 17.5937 20.5729 17.776 20.7324C18.0868 21.0387 18.2911 21.4366 18.3589 21.8677C18.4434 22.2023 18.4822 22.5468 18.4743 22.8919V25.8094C18.462 26.6187 18.462 27.2253 18.462 27.5037C18.462 27.8352 18.5937 28.1531 18.8281 28.3876C19.0626 28.622 19.3805 28.7537 19.712 28.7537C20.0435 28.7537 20.3615 28.622 20.5959 28.3876C20.8303 28.1531 20.962 27.8352 20.962 27.5037C20.962 27.2327 20.962 26.6382 20.9742 25.8289V22.8919C20.9843 22.3391 20.9192 21.7876 20.7808 21.2524C20.7412 21.0768 20.6927 20.9032 20.6355 20.7324C22.5371 20.4166 24.2648 19.4361 25.5113 17.9657C26.7577 16.4953 27.4419 14.6303 27.4421 12.7027C27.4833 12.3044 27.5025 11.9043 27.4995 11.5039C27.5273 9.77739 26.9711 8.09208 25.9212 6.7212L25.9212 6.72117Z" fill="#898989"/>
</svg>
