<svg width="28" height="38" viewBox="0 0 28 38" fill="none" xmlns="http://www.w3.org/2000/svg">
<g filter="url(#filter0_d_201_278)">
<mask id="path-1-outside-1_201_278" maskUnits="userSpaceOnUse" x="4" y="0" width="20" height="30" fill="black">
<rect fill="white" x="4" width="20" height="30"/>
<path d="M5.22 29V0.999998H13.72C14.3867 0.999998 15.0667 1.05333 15.76 1.16C16.4533 1.26667 17.1067 1.46667 17.72 1.76C18.3467 2.04 18.9 2.44 19.38 2.96C19.8733 3.46667 20.26 4.12 20.54 4.92C20.8333 5.72 20.98 6.69333 20.98 7.84C20.98 9.14667 20.7333 10.2667 20.24 11.2C19.76 12.12 19.1933 12.8467 18.54 13.38C17.9 13.9 17.3467 14.22 16.88 14.34C17.32 14.3933 17.8333 14.56 18.42 14.84C19.02 15.1067 19.6067 15.5133 20.18 16.06C20.7533 16.5933 21.2267 17.28 21.6 18.12C21.9867 18.96 22.18 19.98 22.18 21.18C22.18 22.8067 21.8933 24.2067 21.32 25.38C20.76 26.5533 19.9333 27.4533 18.84 28.08C17.7467 28.6933 16.4067 29 14.82 29H5.22ZM7.42 27.14H14.48C15.56 27.14 16.5067 26.92 17.32 26.48C18.1467 26.04 18.7867 25.3733 19.24 24.48C19.7067 23.5867 19.94 22.46 19.94 21.1C19.94 19.7 19.64 18.5933 19.04 17.78C18.4533 16.9533 17.7333 16.3667 16.88 16.02C16.04 15.6733 15.24 15.5 14.48 15.5H7.42V27.14ZM7.42 13.62H13.7C14.5 13.62 15.28 13.4 16.04 12.96C16.8133 12.5067 17.4467 11.8667 17.94 11.04C18.4467 10.2 18.7 9.19333 18.7 8.02C18.7 6.95333 18.5667 6.09333 18.3 5.44C18.0467 4.77333 17.68 4.25333 17.2 3.88C16.7333 3.49333 16.18 3.22667 15.54 3.08C14.9 2.93333 14.2 2.86 13.44 2.86H7.42V13.62Z"/>
</mask>
<path d="M5.22 29V0.999998H13.72C14.3867 0.999998 15.0667 1.05333 15.76 1.16C16.4533 1.26667 17.1067 1.46667 17.72 1.76C18.3467 2.04 18.9 2.44 19.38 2.96C19.8733 3.46667 20.26 4.12 20.54 4.92C20.8333 5.72 20.98 6.69333 20.98 7.84C20.98 9.14667 20.7333 10.2667 20.24 11.2C19.76 12.12 19.1933 12.8467 18.54 13.38C17.9 13.9 17.3467 14.22 16.88 14.34C17.32 14.3933 17.8333 14.56 18.42 14.84C19.02 15.1067 19.6067 15.5133 20.18 16.06C20.7533 16.5933 21.2267 17.28 21.6 18.12C21.9867 18.96 22.18 19.98 22.18 21.18C22.18 22.8067 21.8933 24.2067 21.32 25.38C20.76 26.5533 19.9333 27.4533 18.84 28.08C17.7467 28.6933 16.4067 29 14.82 29H5.22ZM7.42 27.14H14.48C15.56 27.14 16.5067 26.92 17.32 26.48C18.1467 26.04 18.7867 25.3733 19.24 24.48C19.7067 23.5867 19.94 22.46 19.94 21.1C19.94 19.7 19.64 18.5933 19.04 17.78C18.4533 16.9533 17.7333 16.3667 16.88 16.02C16.04 15.6733 15.24 15.5 14.48 15.5H7.42V27.14ZM7.42 13.62H13.7C14.5 13.62 15.28 13.4 16.04 12.96C16.8133 12.5067 17.4467 11.8667 17.94 11.04C18.4467 10.2 18.7 9.19333 18.7 8.02C18.7 6.95333 18.5667 6.09333 18.3 5.44C18.0467 4.77333 17.68 4.25333 17.2 3.88C16.7333 3.49333 16.18 3.22667 15.54 3.08C14.9 2.93333 14.2 2.86 13.44 2.86H7.42V13.62Z" fill="white"/>
<path d="M5.22 29H4.22V30H5.22V29ZM5.22 0.999998V-1.90735e-06H4.22V0.999998H5.22ZM17.72 1.76L17.2885 2.66213L17.3002 2.66772L17.3121 2.67301L17.72 1.76ZM19.38 2.96L18.6452 3.63828L18.6542 3.64807L18.6635 3.65762L19.38 2.96ZM20.54 4.92L19.5961 5.25035L19.5986 5.25732L19.6011 5.26425L20.54 4.92ZM20.24 11.2L19.3559 10.7327L19.3534 10.7374L20.24 11.2ZM18.54 13.38L19.1706 14.1561L19.1724 14.1547L18.54 13.38ZM16.88 14.34L16.631 13.3715L16.7597 15.3327L16.88 14.34ZM18.42 14.84L17.9893 15.7425L18.0015 15.7483L18.0139 15.7538L18.42 14.84ZM20.18 16.06L19.4899 16.7838L19.4989 16.7922L20.18 16.06ZM21.6 18.12L20.6861 18.5262L20.6916 18.5381L21.6 18.12ZM21.32 25.38L20.4215 24.941L20.4175 24.9493L21.32 25.38ZM18.84 28.08L19.3293 28.9522L19.3373 28.9476L18.84 28.08ZM7.42 27.14H6.42V28.14H7.42V27.14ZM17.32 26.48L16.8501 25.5972L16.8442 25.6005L17.32 26.48ZM19.24 24.48L18.3536 24.0169L18.3483 24.0275L19.24 24.48ZM19.04 17.78L18.2245 18.3587L18.2298 18.3662L18.2353 18.3736L19.04 17.78ZM16.88 16.02L16.4985 16.9444L16.5036 16.9465L16.88 16.02ZM7.42 15.5V14.5H6.42V15.5H7.42ZM7.42 13.62H6.42V14.62H7.42V13.62ZM16.04 12.96L16.541 13.8254L16.5457 13.8227L16.04 12.96ZM17.94 11.04L17.0837 10.5235L17.0813 10.5275L17.94 11.04ZM18.3 5.44L17.3652 5.79522L17.3695 5.80661L17.3742 5.8179L18.3 5.44ZM17.2 3.88L16.562 4.65002L16.5739 4.65987L16.5861 4.66935L17.2 3.88ZM15.54 3.08L15.3166 4.05473L15.3166 4.05473L15.54 3.08ZM7.42 2.86V1.86H6.42V2.86H7.42ZM6.22 29V0.999998H4.22V29H6.22ZM5.22 2H13.72V-1.90735e-06H5.22V2ZM13.72 2C14.3332 2 14.9623 2.04904 15.6079 2.14837L15.9121 0.171627C15.171 0.0576198 14.4401 -1.90735e-06 13.72 -1.90735e-06V2ZM15.6079 2.14837C16.2075 2.24061 16.7664 2.41241 17.2885 2.66213L18.1515 0.857863C17.4469 0.520916 16.6991 0.292717 15.9121 0.171627L15.6079 2.14837ZM17.3121 2.67301C17.8111 2.89599 18.2542 3.2147 18.6452 3.63828L20.1148 2.28172C19.5458 1.6653 18.8822 1.184 18.1279 0.846989L17.3121 2.67301ZM18.6635 3.65762C19.037 4.04123 19.3549 4.56097 19.5961 5.25035L21.4839 4.58965C21.1651 3.67903 20.7096 2.8921 20.0965 2.26238L18.6635 3.65762ZM19.6011 5.26425C19.8427 5.92317 19.98 6.77275 19.98 7.84H21.98C21.98 6.61392 21.8239 5.51683 21.4789 4.57574L19.6011 5.26425ZM19.98 7.84C19.98 9.02189 19.7571 9.97366 19.3559 10.7327L21.1241 11.6673C21.7096 10.5597 21.98 9.27144 21.98 7.84H19.98ZM19.3534 10.7374C18.9221 11.5642 18.4347 12.1751 17.9076 12.6053L19.1724 14.1547C19.9519 13.5183 20.5979 12.6758 21.1266 11.6626L19.3534 10.7374ZM17.9094 12.6039C17.3126 13.0888 16.8923 13.3043 16.631 13.3715L17.129 15.3085C17.8011 15.1357 18.4874 14.7112 19.1706 14.1561L17.9094 12.6039ZM16.7597 15.3327C17.0544 15.3685 17.4592 15.4895 17.9893 15.7425L18.8507 13.9375C18.2075 13.6305 17.5856 13.4182 17.0003 13.3473L16.7597 15.3327ZM18.0139 15.7538C18.4899 15.9654 18.983 16.3004 19.4899 16.7837L20.8701 15.3363C20.2303 14.7263 19.5501 14.248 18.8261 13.9262L18.0139 15.7538ZM19.4989 16.7922C19.9578 17.2191 20.3582 17.7883 20.6862 18.5261L22.5138 17.7139C22.0951 16.7717 21.5488 15.9676 20.8611 15.3278L19.4989 16.7922ZM20.6916 18.5381C21.0028 19.2141 21.18 20.0831 21.18 21.18H23.18C23.18 19.8769 22.9706 18.7059 22.5084 17.7019L20.6916 18.5381ZM21.18 21.18C21.18 22.691 20.9137 23.9337 20.4215 24.941L22.2185 25.819C22.873 24.4796 23.18 22.9223 23.18 21.18H21.18ZM20.4175 24.9493C19.9421 25.9454 19.2539 26.6902 18.3427 27.2124L19.3373 28.9476C20.6128 28.2165 21.5779 27.1613 22.2225 25.8107L20.4175 24.9493ZM18.3507 27.2079C17.4415 27.7179 16.28 28 14.82 28V30C16.5333 30 18.0518 29.6687 19.3293 28.9521L18.3507 27.2079ZM14.82 28H5.22V30H14.82V28ZM7.42 28.14H14.48V26.14H7.42V28.14ZM14.48 28.14C15.6981 28.14 16.8136 27.8909 17.7958 27.3595L16.8442 25.6005C16.1998 25.9491 15.4219 26.14 14.48 26.14V28.14ZM17.7899 27.3627C18.811 26.8193 19.5922 25.9957 20.1318 24.9325L18.3483 24.0275C17.9811 24.7509 17.4824 25.2607 16.8502 25.5973L17.7899 27.3627ZM20.1264 24.943C20.6891 23.8657 20.94 22.5674 20.94 21.1H18.94C18.94 22.3526 18.7242 23.3077 18.3537 24.017L20.1264 24.943ZM20.94 21.1C20.94 19.5668 20.6122 18.2267 19.8447 17.1864L18.2353 18.3736C18.6678 18.96 18.94 19.8332 18.94 21.1H20.94ZM19.8555 17.2013C19.1701 16.2354 18.3038 15.519 17.2564 15.0935L16.5036 16.9465C17.1629 17.2143 17.7366 17.6713 18.2245 18.3587L19.8555 17.2013ZM17.2615 15.0956C16.3237 14.7086 15.3938 14.5 14.48 14.5V16.5C15.0862 16.5 15.7563 16.6381 16.4985 16.9444L17.2615 15.0956ZM14.48 14.5H7.42V16.5H14.48V14.5ZM6.42 15.5V27.14H8.42V15.5H6.42ZM7.42 14.62H13.7V12.62H7.42V14.62ZM13.7 14.62C14.6928 14.62 15.6441 14.3447 16.541 13.8254L15.539 12.0946C14.9159 12.4553 14.3072 12.62 13.7 12.62V14.62ZM16.5457 13.8227C17.475 13.2779 18.2257 12.5127 18.7987 11.5525L17.0813 10.5275C16.6677 11.2206 16.1517 11.7354 15.5343 12.0973L16.5457 13.8227ZM18.7963 11.5565C19.4139 10.5325 19.7 9.33946 19.7 8.02H17.7C17.7 9.0472 17.4794 9.8675 17.0837 10.5235L18.7963 11.5565ZM19.7 8.02C19.7 6.88354 19.5599 5.88053 19.2258 5.0621L17.3742 5.8179C17.5734 6.30613 17.7 7.02312 17.7 8.02H19.7ZM19.2348 5.08478C18.9277 4.27672 18.4621 3.59474 17.8139 3.09065L16.5861 4.66935C16.8979 4.91193 17.1656 5.26994 17.3652 5.79522L19.2348 5.08478ZM17.838 3.10998C17.2412 2.61546 16.5427 2.28387 15.7634 2.10527L15.3166 4.05473C15.8173 4.16946 16.2255 4.3712 16.562 4.65002L17.838 3.10998ZM15.7634 2.10527C15.0397 1.93942 14.2637 1.86 13.44 1.86V3.86C14.1363 3.86 14.7603 3.92724 15.3166 4.05473L15.7634 2.10527ZM13.44 1.86H7.42V3.86H13.44V1.86ZM6.42 2.86V13.62H8.42V2.86H6.42Z" fill="white" mask="url(#path-1-outside-1_201_278)"/>
</g>
<defs>
<filter id="filter0_d_201_278" x="0.219727" y="0" width="26.96" height="38" filterUnits="userSpaceOnUse" color-interpolation-filters="sRGB">
<feFlood flood-opacity="0" result="BackgroundImageFix"/>
<feColorMatrix in="SourceAlpha" type="matrix" values="0 0 0 0 0 0 0 0 0 0 0 0 0 0 0 0 0 0 127 0" result="hardAlpha"/>
<feOffset dy="4"/>
<feGaussianBlur stdDeviation="2"/>
<feComposite in2="hardAlpha" operator="out"/>
<feColorMatrix type="matrix" values="0 0 0 0 0 0 0 0 0 0 0 0 0 0 0 0 0 0 0.25 0"/>
<feBlend mode="normal" in2="BackgroundImageFix" result="effect1_dropShadow_201_278"/>
<feBlend mode="normal" in="SourceGraphic" in2="effect1_dropShadow_201_278" result="shape"/>
</filter>
</defs>
</svg>
