<svg width="50" height="50" viewBox="0 0 50 50" fill="none" xmlns="http://www.w3.org/2000/svg">
<rect width="50" height="50" fill="#0F2521"/>
<path d="M0 0H50V50H0V0Z" fill="#D9D9D9" fill-opacity="0.04"/>
<g filter="url(#filter0_d_1083_1331)">
<mask id="path-3-outside-1_1083_1331" maskUnits="userSpaceOnUse" x="16" y="10" width="20" height="30" fill="black">
<rect fill="white" x="16" y="10" width="20" height="30"/>
<path d="M17.2122 39V11H25.7122C26.3789 11 27.0589 11.0533 27.7522 11.16C28.4455 11.2667 29.0989 11.4667 29.7122 11.76C30.3389 12.04 30.8922 12.44 31.3722 12.96C31.8655 13.4667 32.2522 14.12 32.5322 14.92C32.8255 15.72 32.9722 16.6933 32.9722 17.84C32.9722 19.1467 32.7255 20.2667 32.2322 21.2C31.7522 22.12 31.1855 22.8467 30.5322 23.38C29.8922 23.9 29.3389 24.22 28.8722 24.34C29.3122 24.3933 29.8255 24.56 30.4122 24.84C31.0122 25.1067 31.5989 25.5133 32.1722 26.06C32.7455 26.5933 33.2189 27.28 33.5922 28.12C33.9789 28.96 34.1722 29.98 34.1722 31.18C34.1722 32.8067 33.8855 34.2067 33.3122 35.38C32.7522 36.5533 31.9255 37.4533 30.8322 38.08C29.7389 38.6933 28.3989 39 26.8122 39H17.2122ZM19.4122 37.14H26.4722C27.5522 37.14 28.4989 36.92 29.3122 36.48C30.1389 36.04 30.7789 35.3733 31.2322 34.48C31.6989 33.5867 31.9322 32.46 31.9322 31.1C31.9322 29.7 31.6322 28.5933 31.0322 27.78C30.4455 26.9533 29.7255 26.3667 28.8722 26.02C28.0322 25.6733 27.2322 25.5 26.4722 25.5H19.4122V37.14ZM19.4122 23.62H25.6922C26.4922 23.62 27.2722 23.4 28.0322 22.96C28.8055 22.5067 29.4389 21.8667 29.9322 21.04C30.4389 20.2 30.6922 19.1933 30.6922 18.02C30.6922 16.9533 30.5589 16.0933 30.2922 15.44C30.0389 14.7733 29.6722 14.2533 29.1922 13.88C28.7255 13.4933 28.1722 13.2267 27.5322 13.08C26.8922 12.9333 26.1922 12.86 25.4322 12.86H19.4122V23.62Z"/>
</mask>
<path d="M17.2122 39V11H25.7122C26.3789 11 27.0589 11.0533 27.7522 11.16C28.4455 11.2667 29.0989 11.4667 29.7122 11.76C30.3389 12.04 30.8922 12.44 31.3722 12.96C31.8655 13.4667 32.2522 14.12 32.5322 14.92C32.8255 15.72 32.9722 16.6933 32.9722 17.84C32.9722 19.1467 32.7255 20.2667 32.2322 21.2C31.7522 22.12 31.1855 22.8467 30.5322 23.38C29.8922 23.9 29.3389 24.22 28.8722 24.34C29.3122 24.3933 29.8255 24.56 30.4122 24.84C31.0122 25.1067 31.5989 25.5133 32.1722 26.06C32.7455 26.5933 33.2189 27.28 33.5922 28.12C33.9789 28.96 34.1722 29.98 34.1722 31.18C34.1722 32.8067 33.8855 34.2067 33.3122 35.38C32.7522 36.5533 31.9255 37.4533 30.8322 38.08C29.7389 38.6933 28.3989 39 26.8122 39H17.2122ZM19.4122 37.14H26.4722C27.5522 37.14 28.4989 36.92 29.3122 36.48C30.1389 36.04 30.7789 35.3733 31.2322 34.48C31.6989 33.5867 31.9322 32.46 31.9322 31.1C31.9322 29.7 31.6322 28.5933 31.0322 27.78C30.4455 26.9533 29.7255 26.3667 28.8722 26.02C28.0322 25.6733 27.2322 25.5 26.4722 25.5H19.4122V37.14ZM19.4122 23.62H25.6922C26.4922 23.62 27.2722 23.4 28.0322 22.96C28.8055 22.5067 29.4389 21.8667 29.9322 21.04C30.4389 20.2 30.6922 19.1933 30.6922 18.02C30.6922 16.9533 30.5589 16.0933 30.2922 15.44C30.0389 14.7733 29.6722 14.2533 29.1922 13.88C28.7255 13.4933 28.1722 13.2267 27.5322 13.08C26.8922 12.9333 26.1922 12.86 25.4322 12.86H19.4122V23.62Z" fill="white"/>
<path d="M17.2122 39H16.2122V40H17.2122V39ZM17.2122 11V10H16.2122V11H17.2122ZM29.7122 11.76L29.2807 12.6621L29.2924 12.6677L29.3042 12.673L29.7122 11.76ZM31.3722 12.96L30.6374 13.6383L30.6464 13.6481L30.6557 13.6576L31.3722 12.96ZM32.5322 14.92L31.5883 15.2503L31.5908 15.2573L31.5933 15.2643L32.5322 14.92ZM32.2322 21.2L31.3481 20.7327L31.3456 20.7374L32.2322 21.2ZM30.5322 23.38L31.1628 24.1561L31.1646 24.1547L30.5322 23.38ZM28.8722 24.34L28.6231 23.3715L28.7519 25.3327L28.8722 24.34ZM30.4122 24.84L29.9815 25.7425L29.9937 25.7483L30.0061 25.7538L30.4122 24.84ZM32.1722 26.06L31.4821 26.7838L31.4911 26.7922L32.1722 26.06ZM33.5922 28.12L32.6783 28.5262L32.6838 28.5381L33.5922 28.12ZM33.3122 35.38L32.4137 34.941L32.4097 34.9493L33.3122 35.38ZM30.8322 38.08L31.3215 38.9522L31.3295 38.9476L30.8322 38.08ZM19.4122 37.14H18.4122V38.14H19.4122V37.14ZM29.3122 36.48L28.8423 35.5972L28.8364 35.6005L29.3122 36.48ZM31.2322 34.48L30.3458 34.0169L30.3404 34.0275L31.2322 34.48ZM31.0322 27.78L30.2167 28.3587L30.222 28.3662L30.2275 28.3736L31.0322 27.78ZM28.8722 26.02L28.4907 26.9444L28.4958 26.9465L28.8722 26.02ZM19.4122 25.5V24.5H18.4122V25.5H19.4122ZM19.4122 23.62H18.4122V24.62H19.4122V23.62ZM28.0322 22.96L28.5332 23.8254L28.5379 23.8227L28.0322 22.96ZM29.9322 21.04L29.0759 20.5235L29.0735 20.5275L29.9322 21.04ZM30.2922 15.44L29.3574 15.7952L29.3617 15.8066L29.3663 15.8179L30.2922 15.44ZM29.1922 13.88L28.5542 14.65L28.5661 14.6599L28.5782 14.6694L29.1922 13.88ZM27.5322 13.08L27.3088 14.0547L27.3088 14.0547L27.5322 13.08ZM19.4122 12.86V11.86H18.4122V12.86H19.4122ZM17.2122 39H18.2122V11H17.2122H16.2122V39H17.2122ZM17.2122 11V12H25.7122V11V10H17.2122V11ZM25.7122 11V12C26.3254 12 26.9545 12.049 27.6001 12.1484L27.7522 11.16L27.9042 10.1716C27.1632 10.0576 26.4323 10 25.7122 10V11ZM27.7522 11.16L27.6001 12.1484C28.1997 12.2406 28.7586 12.4124 29.2807 12.6621L29.7122 11.76L30.1436 10.8579C29.4391 10.5209 28.6913 10.2927 27.9042 10.1716L27.7522 11.16ZM29.7122 11.76L29.3042 12.673C29.8033 12.896 30.2464 13.2147 30.6374 13.6383L31.3722 12.96L32.107 12.2817C31.538 11.6653 30.8744 11.184 30.1201 10.847L29.7122 11.76ZM31.3722 12.96L30.6557 13.6576C31.0292 14.0412 31.347 14.561 31.5883 15.2503L32.5322 14.92L33.476 14.5896C33.1573 13.679 32.7018 12.8921 32.0887 12.2624L31.3722 12.96ZM32.5322 14.92L31.5933 15.2643C31.8349 15.9232 31.9722 16.7727 31.9722 17.84H32.9722H33.9722C33.9722 16.6139 33.8161 15.5168 33.4711 14.5757L32.5322 14.92ZM32.9722 17.84H31.9722C31.9722 19.0219 31.7493 19.9737 31.3481 20.7327L32.2322 21.2L33.1163 21.6673C33.7017 20.5597 33.9722 19.2714 33.9722 17.84H32.9722ZM32.2322 21.2L31.3456 20.7374C30.9143 21.5642 30.4269 22.1751 29.8998 22.6053L30.5322 23.38L31.1646 24.1547C31.9441 23.5183 32.5901 22.6758 33.1188 21.6626L32.2322 21.2ZM30.5322 23.38L29.9016 22.6039C29.3048 23.0888 28.8845 23.3043 28.6231 23.3715L28.8722 24.34L29.1212 25.3085C29.7933 25.1357 30.4796 24.7112 31.1628 24.1561L30.5322 23.38ZM28.8722 24.34L28.7519 25.3327C29.0466 25.3685 29.4513 25.4895 29.9815 25.7425L30.4122 24.84L30.8429 23.9375C30.1997 23.6305 29.5778 23.4182 28.9925 23.3473L28.8722 24.34ZM30.4122 24.84L30.0061 25.7538C30.4821 25.9654 30.9752 26.3004 31.4821 26.7837L32.1722 26.06L32.8623 25.3363C32.2225 24.7263 31.5423 24.248 30.8183 23.9262L30.4122 24.84ZM32.1722 26.06L31.4911 26.7922C31.95 27.2191 32.3504 27.7883 32.6784 28.5261L33.5922 28.12L34.506 27.7139C34.0873 26.7717 33.541 25.9676 32.8533 25.3278L32.1722 26.06ZM33.5922 28.12L32.6838 28.5381C32.995 29.2141 33.1722 30.0831 33.1722 31.18H34.1722H35.1722C35.1722 29.8769 34.9627 28.7059 34.5006 27.7019L33.5922 28.12ZM34.1722 31.18H33.1722C33.1722 32.691 32.9059 33.9337 32.4137 34.941L33.3122 35.38L34.2107 35.819C34.8652 34.4796 35.1722 32.9223 35.1722 31.18H34.1722ZM33.3122 35.38L32.4097 34.9493C31.9343 35.9454 31.2461 36.6902 30.3349 37.2124L30.8322 38.08L31.3295 38.9476C32.605 38.2165 33.5701 37.1613 34.2147 35.8107L33.3122 35.38ZM30.8322 38.08L30.3429 37.2079C29.4337 37.7179 28.2722 38 26.8122 38V39V40C28.5255 40 30.044 39.6687 31.3214 38.9521L30.8322 38.08ZM26.8122 39V38H17.2122V39V40H26.8122V39ZM19.4122 37.14V38.14H26.4722V37.14V36.14H19.4122V37.14ZM26.4722 37.14V38.14C27.6903 38.14 28.8057 37.8909 29.788 37.3595L29.3122 36.48L28.8364 35.6005C28.192 35.9491 27.414 36.14 26.4722 36.14V37.14ZM29.3122 36.48L29.782 37.3627C30.8031 36.8193 31.5844 35.9957 32.1239 34.9325L31.2322 34.48L30.3404 34.0275C29.9733 34.7509 29.4746 35.2607 28.8423 35.5973L29.3122 36.48ZM31.2322 34.48L32.1185 34.943C32.6813 33.8657 32.9322 32.5674 32.9322 31.1H31.9322H30.9322C30.9322 32.3526 30.7164 33.3077 30.3458 34.017L31.2322 34.48ZM31.9322 31.1H32.9322C32.9322 29.5668 32.6044 28.2267 31.8369 27.1864L31.0322 27.78L30.2275 28.3736C30.66 28.96 30.9322 29.8332 30.9322 31.1H31.9322ZM31.0322 27.78L31.8477 27.2013C31.1623 26.2354 30.296 25.519 29.2486 25.0935L28.8722 26.02L28.4958 26.9465C29.1551 27.2143 29.7288 27.6713 30.2167 28.3587L31.0322 27.78ZM28.8722 26.02L29.2537 25.0956C28.3159 24.7086 27.386 24.5 26.4722 24.5V25.5V26.5C27.0784 26.5 27.7485 26.6381 28.4907 26.9444L28.8722 26.02ZM26.4722 25.5V24.5H19.4122V25.5V26.5H26.4722V25.5ZM19.4122 25.5H18.4122V37.14H19.4122H20.4122V25.5H19.4122ZM19.4122 23.62V24.62H25.6922V23.62V22.62H19.4122V23.62ZM25.6922 23.62V24.62C26.685 24.62 27.6363 24.3447 28.5332 23.8254L28.0322 22.96L27.5312 22.0946C26.9081 22.4553 26.2994 22.62 25.6922 22.62V23.62ZM28.0322 22.96L28.5379 23.8227C29.4672 23.2779 30.2178 22.5127 30.7909 21.5525L29.9322 21.04L29.0735 20.5275C28.6599 21.2206 28.1439 21.7354 27.5265 22.0973L28.0322 22.96ZM29.9322 21.04L30.7885 21.5565C31.4061 20.5325 31.6922 19.3395 31.6922 18.02H30.6922H29.6922C29.6922 19.0472 29.4716 19.8675 29.0759 20.5235L29.9322 21.04ZM30.6922 18.02H31.6922C31.6922 16.8835 31.5521 15.8805 31.218 15.0621L30.2922 15.44L29.3663 15.8179C29.5656 16.3061 29.6922 17.0231 29.6922 18.02H30.6922ZM30.2922 15.44L31.227 15.0848C30.9199 14.2767 30.4542 13.5947 29.8061 13.0906L29.1922 13.88L28.5782 14.6694C28.8901 14.9119 29.1578 15.2699 29.3574 15.7952L30.2922 15.44ZM29.1922 13.88L29.8302 13.11C29.2334 12.6155 28.5349 12.2839 27.7556 12.1053L27.5322 13.08L27.3088 14.0547C27.8095 14.1695 28.2177 14.3712 28.5542 14.65L29.1922 13.88ZM27.5322 13.08L27.7556 12.1053C27.0319 11.9394 26.2559 11.86 25.4322 11.86V12.86V13.86C26.1285 13.86 26.7525 13.9272 27.3088 14.0547L27.5322 13.08ZM25.4322 12.86V11.86H19.4122V12.86V13.86H25.4322V12.86ZM19.4122 12.86H18.4122V23.62H19.4122H20.4122V12.86H19.4122Z" fill="white" mask="url(#path-3-outside-1_1083_1331)"/>
</g>
<defs>
<filter id="filter0_d_1083_1331" x="12.2119" y="10" width="26.96" height="38" filterUnits="userSpaceOnUse" color-interpolation-filters="sRGB">
<feFlood flood-opacity="0" result="BackgroundImageFix"/>
<feColorMatrix in="SourceAlpha" type="matrix" values="0 0 0 0 0 0 0 0 0 0 0 0 0 0 0 0 0 0 127 0" result="hardAlpha"/>
<feOffset dy="4"/>
<feGaussianBlur stdDeviation="2"/>
<feComposite in2="hardAlpha" operator="out"/>
<feColorMatrix type="matrix" values="0 0 0 0 0 0 0 0 0 0 0 0 0 0 0 0 0 0 0.25 0"/>
<feBlend mode="normal" in2="BackgroundImageFix" result="effect1_dropShadow_1083_1331"/>
<feBlend mode="normal" in="SourceGraphic" in2="effect1_dropShadow_1083_1331" result="shape"/>
</filter>
</defs>
</svg>
