<svg width="58" height="74" viewBox="0 0 58 74" fill="none" xmlns="http://www.w3.org/2000/svg">
<path d="M37.3333 35.4167L47.75 25M47.75 25L37.3333 14.5833M47.75 25H22.75M22.75 6.25H20.25C16.7497 6.25 14.9995 6.25 13.6626 6.93121C12.4865 7.53042 11.5304 8.48655 10.9312 9.66256C10.25 10.9995 10.25 12.7497 10.25 16.25V33.75C10.25 37.2503 10.25 39.0005 10.9312 40.3374C11.5304 41.5135 12.4865 42.4696 13.6626 43.0688C14.9995 43.75 16.7497 43.75 20.25 43.75H22.75" stroke="#0F0F0F" stroke-width="2" stroke-linecap="round" stroke-linejoin="round"/>
<path d="M3.024 54.16V66H1.2V54.16H3.024ZM9.56275 66.144C8.73075 66.144 7.97875 65.9573 7.30675 65.584C6.63475 65.2 6.10675 64.6667 5.72275 63.984C5.33875 63.2907 5.14675 62.4907 5.14675 61.584C5.14675 60.688 5.34408 59.8933 5.73875 59.2C6.13342 58.5067 6.67208 57.9733 7.35475 57.6C8.03742 57.2267 8.80008 57.04 9.64275 57.04C10.4854 57.04 11.2481 57.2267 11.9308 57.6C12.6134 57.9733 13.1521 58.5067 13.5468 59.2C13.9414 59.8933 14.1388 60.688 14.1388 61.584C14.1388 62.48 13.9361 63.2747 13.5308 63.968C13.1254 64.6613 12.5708 65.2 11.8668 65.584C11.1734 65.9573 10.4054 66.144 9.56275 66.144ZM9.56275 64.56C10.0321 64.56 10.4694 64.448 10.8748 64.224C11.2908 64 11.6268 63.664 11.8828 63.216C12.1388 62.768 12.2668 62.224 12.2668 61.584C12.2668 60.944 12.1441 60.4053 11.8988 59.968C11.6534 59.52 11.3281 59.184 10.9228 58.96C10.5174 58.736 10.0801 58.624 9.61075 58.624C9.14142 58.624 8.70408 58.736 8.29875 58.96C7.90408 59.184 7.58942 59.52 7.35475 59.968C7.12008 60.4053 7.00275 60.944 7.00275 61.584C7.00275 62.5333 7.24275 63.2693 7.72275 63.792C8.21342 64.304 8.82675 64.56 9.56275 64.56ZM19.8139 57.04C20.4965 57.04 21.0992 57.1787 21.6219 57.456C22.1552 57.7227 22.5712 58.0587 22.8699 58.464V57.184H24.7099V66.144C24.7099 66.9547 24.5392 67.6747 24.1979 68.304C23.8565 68.944 23.3605 69.4453 22.7099 69.808C22.0699 70.1707 21.3019 70.352 20.4059 70.352C19.2112 70.352 18.2192 70.0693 17.4299 69.504C16.6405 68.9493 16.1925 68.192 16.0859 67.232H17.8939C18.0325 67.6907 18.3259 68.0587 18.7739 68.336C19.2325 68.624 19.7765 68.768 20.4059 68.768C21.1419 68.768 21.7339 68.544 22.1819 68.096C22.6405 67.648 22.8699 66.9973 22.8699 66.144V64.672C22.5605 65.088 22.1392 65.44 21.6059 65.728C21.0832 66.0053 20.4859 66.144 19.8139 66.144C19.0459 66.144 18.3419 65.952 17.7019 65.568C17.0725 65.1733 16.5712 64.6293 16.1979 63.936C15.8352 63.232 15.6539 62.4373 15.6539 61.552C15.6539 60.6667 15.8352 59.8827 16.1979 59.2C16.5712 58.5173 17.0725 57.9893 17.7019 57.616C18.3419 57.232 19.0459 57.04 19.8139 57.04ZM22.8699 61.584C22.8699 60.976 22.7419 60.448 22.4859 60C22.2405 59.552 21.9152 59.2107 21.5099 58.976C21.1045 58.7413 20.6672 58.624 20.1979 58.624C19.7285 58.624 19.2912 58.7413 18.8859 58.976C18.4805 59.2 18.1499 59.536 17.8939 59.984C17.6485 60.4213 17.5259 60.944 17.5259 61.552C17.5259 62.16 17.6485 62.6933 17.8939 63.152C18.1499 63.6107 18.4805 63.9627 18.8859 64.208C19.3019 64.4427 19.7392 64.56 20.1979 64.56C20.6672 64.56 21.1045 64.4427 21.5099 64.208C21.9152 63.9733 22.2405 63.632 22.4859 63.184C22.7419 62.7253 22.8699 62.192 22.8699 61.584ZM35.7259 66.144C34.8939 66.144 34.1419 65.9573 33.4699 65.584C32.7979 65.2 32.2699 64.6667 31.8859 63.984C31.5019 63.2907 31.3099 62.4907 31.3099 61.584C31.3099 60.688 31.5072 59.8933 31.9019 59.2C32.2965 58.5067 32.8352 57.9733 33.5179 57.6C34.2005 57.2267 34.9632 57.04 35.8059 57.04C36.6485 57.04 37.4112 57.2267 38.0939 57.6C38.7765 57.9733 39.3152 58.5067 39.7099 59.2C40.1045 59.8933 40.3019 60.688 40.3019 61.584C40.3019 62.48 40.0992 63.2747 39.6939 63.968C39.2885 64.6613 38.7339 65.2 38.0299 65.584C37.3365 65.9573 36.5685 66.144 35.7259 66.144ZM35.7259 64.56C36.1952 64.56 36.6325 64.448 37.0379 64.224C37.4539 64 37.7899 63.664 38.0459 63.216C38.3019 62.768 38.4299 62.224 38.4299 61.584C38.4299 60.944 38.3072 60.4053 38.0619 59.968C37.8165 59.52 37.4912 59.184 37.0859 58.96C36.6805 58.736 36.2432 58.624 35.7739 58.624C35.3045 58.624 34.8672 58.736 34.4619 58.96C34.0672 59.184 33.7525 59.52 33.5179 59.968C33.2832 60.4053 33.1659 60.944 33.1659 61.584C33.1659 62.5333 33.4059 63.2693 33.8859 63.792C34.3765 64.304 34.9899 64.56 35.7259 64.56ZM50.409 57.184V66H48.585V64.96C48.297 65.3227 47.9183 65.6107 47.449 65.824C46.9903 66.0267 46.4997 66.128 45.977 66.128C45.2837 66.128 44.6597 65.984 44.105 65.696C43.561 65.408 43.129 64.9813 42.809 64.416C42.4997 63.8507 42.345 63.168 42.345 62.368V57.184H44.153V62.096C44.153 62.8853 44.3503 63.4933 44.745 63.92C45.1397 64.336 45.6783 64.544 46.361 64.544C47.0437 64.544 47.5823 64.336 47.977 63.92C48.3823 63.4933 48.585 62.8853 48.585 62.096V57.184H50.409ZM55.2636 58.672V63.552C55.2636 63.8827 55.3383 64.1227 55.4876 64.272C55.6476 64.4107 55.9143 64.48 56.2876 64.48H57.4076V66H55.9676C55.1463 66 54.517 65.808 54.0796 65.424C53.6423 65.04 53.4236 64.416 53.4236 63.552V58.672H52.3836V57.184H53.4236V54.992H55.2636V57.184H57.4076V58.672H55.2636Z" fill="white"/>
</svg>
