<svg width="17" height="17" viewBox="0 0 17 17" fill="none" xmlns="http://www.w3.org/2000/svg">
<path d="M14.8748 3.54169H12.3539C12.0486 3.54169 11.7787 3.34762 11.6817 3.05791L11.4579 2.38494C11.2645 1.80623 10.724 1.41669 10.1141 1.41669H6.88482C6.27423 1.41669 5.73379 1.8063 5.54113 2.38572L5.31731 3.05722C5.22098 3.34692 4.95037 3.54169 4.64508 3.54169H2.12484C1.73384 3.54169 1.4165 3.85831 1.4165 4.25002C1.4165 4.64173 1.73384 4.95835 2.12484 4.95835H2.87921L3.41116 12.9384C3.50961 14.4217 4.75134 15.5834 6.23813 15.5834H10.7622C12.249 15.5834 13.4908 14.421 13.5892 12.9384L14.1212 4.95835H14.8748C15.2658 4.95835 15.5832 4.64173 15.5832 4.25002C15.5832 3.85831 15.2658 3.54169 14.8748 3.54169ZM6.88555 2.83335L10.1149 2.83266L10.3387 3.50554C10.3429 3.51829 10.3493 3.52894 10.3542 3.54169H6.64682C6.65107 3.52894 6.65817 3.5176 6.66243 3.50485L6.88555 2.83335ZM12.1754 12.8443C12.1258 13.5859 11.5053 14.1667 10.7615 14.1667H6.23744C5.4944 14.1667 4.87317 13.5859 4.82359 12.8443L4.29869 4.95835H4.64581C4.7216 4.95835 4.79595 4.94842 4.87032 4.94063C4.90078 4.94488 4.92699 4.95835 4.95886 4.95835H12.0422C12.0734 4.95835 12.1003 4.94417 12.1307 4.94063C12.2051 4.94842 12.2788 4.95835 12.3553 4.95835H12.7024L12.1754 12.8443ZM10.6248 7.79169V11.3334C10.6248 11.7251 10.3075 12.0417 9.9165 12.0417C9.5255 12.0417 9.20817 11.7251 9.20817 11.3334V7.79169C9.20817 7.39998 9.5255 7.08335 9.9165 7.08335C10.3075 7.08335 10.6248 7.39998 10.6248 7.79169ZM7.7915 7.79169V11.3334C7.7915 11.7251 7.47417 12.0417 7.08317 12.0417C6.69217 12.0417 6.37484 11.7251 6.37484 11.3334V7.79169C6.37484 7.39998 6.69217 7.08335 7.08317 7.08335C7.47417 7.08335 7.7915 7.39998 7.7915 7.79169Z" fill="#41416E"/>
</svg>
