<svg width="70" height="70" viewBox="0 0 70 70" fill="none" xmlns="http://www.w3.org/2000/svg">
<path d="M55.416 5.83333C54.6425 5.83333 53.9006 6.14062 53.3536 6.6876C52.8066 7.23458 52.4994 7.97645 52.4994 8.74999V24.675L49.5827 26.6292V8.74999C49.5827 7.97645 49.2754 7.23458 48.7284 6.6876C48.1814 6.14062 47.4396 5.83333 46.666 5.83333C45.8925 5.83333 45.1506 6.14062 44.6036 6.6876C44.0566 7.23458 43.7494 7.97645 43.7494 8.74999V26.6292L40.8327 24.675V8.74999C40.8327 7.97645 40.5254 7.23458 39.9784 6.6876C39.4314 6.14062 38.6896 5.83333 37.916 5.83333C37.1425 5.83333 36.4006 6.14062 35.8536 6.6876C35.3066 7.23458 34.9993 7.97645 34.9993 8.74999V26.25C35.0018 26.7304 35.1229 27.2027 35.3519 27.6251C35.5809 28.0474 35.9106 28.4066 36.3118 28.6708L43.7494 33.6583V61.25C43.7494 62.0235 44.0566 62.7654 44.6036 63.3124C45.1506 63.8594 45.8925 64.1667 46.666 64.1667C47.4396 64.1667 48.1814 63.8594 48.7284 63.3124C49.2754 62.7654 49.5827 62.0235 49.5827 61.25V33.6583L57.0202 28.6708C57.4214 28.4066 57.7511 28.0474 57.9801 27.6251C58.2091 27.2027 58.3302 26.7304 58.3327 26.25V8.74999C58.3327 7.97645 58.0254 7.23458 57.4784 6.6876C56.9314 6.14062 56.1896 5.83333 55.416 5.83333ZM26.2493 5.83333C22.3816 5.83333 18.6723 7.36978 15.9374 10.1047C13.2025 12.8396 11.666 16.5489 11.666 20.4167V37.9167C11.666 38.6902 11.9733 39.4321 12.5203 39.9791C13.0673 40.526 13.8091 40.8333 14.5827 40.8333H23.3327V61.25C23.3327 62.0235 23.64 62.7654 24.187 63.3124C24.7339 63.8594 25.4758 64.1667 26.2493 64.1667C27.0229 64.1667 27.7648 63.8594 28.3117 63.3124C28.8587 62.7654 29.166 62.0235 29.166 61.25V8.74999C29.166 7.97645 28.8587 7.23458 28.3117 6.6876C27.7648 6.14062 27.0229 5.83333 26.2493 5.83333ZM23.3327 35H17.4993V20.4167C17.4984 18.6064 18.0589 16.8405 19.1037 15.3621C20.1484 13.8838 21.626 12.7659 23.3327 12.1625V35Z" fill="#898989"/>
</svg>
