<svg width="68" height="68" viewBox="0 0 68 68" fill="none" xmlns="http://www.w3.org/2000/svg">
<g clip-path="url(#clip0_431_1100)">
<path d="M56.6673 62.3333C58.2321 62.3333 59.5007 61.0648 59.5007 59.5C59.5007 57.9352 58.2321 56.6667 56.6673 56.6667C55.1025 56.6667 53.834 57.9352 53.834 59.5C53.834 61.0648 55.1025 62.3333 56.6673 62.3333Z" stroke="#898989" stroke-width="6" stroke-linecap="round" stroke-linejoin="round"/>
<path d="M25.4993 62.3333C27.0642 62.3333 28.3327 61.0648 28.3327 59.5C28.3327 57.9352 27.0642 56.6667 25.4993 56.6667C23.9345 56.6667 22.666 57.9352 22.666 59.5C22.666 61.0648 23.9345 62.3333 25.4993 62.3333Z" stroke="#898989" stroke-width="6" stroke-linecap="round" stroke-linejoin="round"/>
<path d="M2.83398 2.83331H14.1673L21.7607 40.7716C22.0197 42.0761 22.7294 43.2479 23.7654 44.0818C24.8013 44.9158 26.0976 45.3588 27.4273 45.3333H54.9673C56.297 45.3588 57.5933 44.9158 58.6293 44.0818C59.6652 43.2479 60.3749 42.0761 60.634 40.7716L65.1673 17H17.0007" stroke="#898989" stroke-width="6" stroke-linecap="round" stroke-linejoin="round"/>
</g>
<defs>
<clipPath id="clip0_431_1100">
<rect width="68" height="68" fill="white"/>
</clipPath>
</defs>
</svg>
