<svg width="70" height="70" viewBox="0 0 70 70" fill="none" xmlns="http://www.w3.org/2000/svg">
<path d="M63.174 29.8958L36.924 6.56251C36.3918 6.09491 35.7075 5.83704 34.999 5.83704C34.2905 5.83704 33.6063 6.09491 33.074 6.56251L6.82402 29.8958C6.37788 30.2905 6.06326 30.8123 5.92248 31.3911C5.7817 31.9699 5.8215 32.5779 6.03652 33.1333C6.24804 33.6815 6.62016 34.153 7.10417 34.4861C7.58817 34.8191 8.16149 34.9983 8.74902 35H11.6657V61.25C11.6657 62.0236 11.973 62.7654 12.52 63.3124C13.0669 63.8594 13.8088 64.1667 14.5824 64.1667H55.4157C56.1892 64.1667 56.9311 63.8594 57.4781 63.3124C58.0251 62.7654 58.3324 62.0236 58.3324 61.25V35H61.249C61.8366 34.9983 62.4099 34.8191 62.8939 34.4861C63.3779 34.153 63.75 33.6815 63.9615 33.1333C64.1766 32.5779 64.2164 31.9699 64.0756 31.3911C63.9348 30.8123 63.6202 30.2905 63.174 29.8958ZM37.9157 58.3333H32.0824V49.5833C32.0824 48.8098 32.3897 48.0679 32.9366 47.521C33.4836 46.974 34.2255 46.6667 34.999 46.6667C35.7726 46.6667 36.5144 46.974 37.0614 47.521C37.6084 48.0679 37.9157 48.8098 37.9157 49.5833V58.3333ZM52.499 58.3333H43.749V49.5833C43.749 47.2627 42.8272 45.0371 41.1862 43.3962C39.5453 41.7552 37.3197 40.8333 34.999 40.8333C32.6784 40.8333 30.4528 41.7552 28.8118 43.3962C27.1709 45.0371 26.249 47.2627 26.249 49.5833V58.3333H17.499V35H52.499V58.3333ZM16.4199 29.1667L34.999 12.6583L53.5782 29.1667H16.4199Z" fill="#898989"/>
</svg>
