<svg width="70" height="70" viewBox="0 0 70 70" fill="none" xmlns="http://www.w3.org/2000/svg">
<path d="M52.5 20.4167H51.4792C52.1448 19.0539 52.4938 17.5583 52.5 16.0417C52.5088 14.0097 51.9093 12.0216 50.7786 10.3333C49.6479 8.64494 48.0378 7.33365 46.1555 6.56818C44.2732 5.80272 42.2049 5.61812 40.2168 6.03815C38.2287 6.45818 36.4118 7.46361 35 8.92503C33.5882 7.46361 31.7713 6.45818 29.7832 6.03815C27.7951 5.61812 25.7268 5.80272 23.8445 6.56818C21.9622 7.33365 20.3521 8.64494 19.2214 10.3333C18.0907 12.0216 17.4912 14.0097 17.5 16.0417C17.5062 17.5583 17.8552 19.0539 18.5208 20.4167H17.5C15.1794 20.4167 12.9538 21.3386 11.3128 22.9795C9.67187 24.6205 8.75 26.846 8.75 29.1667V35C8.75 35.7736 9.05729 36.5154 9.60427 37.0624C10.1513 37.6094 10.8931 37.9167 11.6667 37.9167H14.5833V55.4167C14.5833 57.7373 15.5052 59.9629 17.1461 61.6039C18.7871 63.2448 21.0127 64.1667 23.3333 64.1667H46.6667C48.9873 64.1667 51.2129 63.2448 52.8539 61.6039C54.4948 59.9629 55.4167 57.7373 55.4167 55.4167V37.9167H58.3333C59.1069 37.9167 59.8488 37.6094 60.3957 37.0624C60.9427 36.5154 61.25 35.7736 61.25 35V29.1667C61.25 26.846 60.3281 24.6205 58.6872 22.9795C57.0462 21.3386 54.8206 20.4167 52.5 20.4167ZM32.0833 58.3334H23.3333C22.5598 58.3334 21.8179 58.0261 21.2709 57.4791C20.724 56.9321 20.4167 56.1902 20.4167 55.4167V37.9167H32.0833V58.3334ZM32.0833 32.0834H14.5833V29.1667C14.5833 28.3931 14.8906 27.6513 15.4376 27.1043C15.9846 26.5573 16.7265 26.25 17.5 26.25H32.0833V32.0834ZM32.0833 20.4167H27.7083C26.843 20.4167 25.9972 20.1601 25.2777 19.6794C24.5583 19.1986 23.9975 18.5154 23.6664 17.7159C23.3352 16.9165 23.2486 16.0368 23.4174 15.1882C23.5862 14.3395 24.0029 13.56 24.6147 12.9481C25.2266 12.3362 26.0061 11.9196 26.8548 11.7508C27.7035 11.5819 28.5831 11.6686 29.3826 11.9997C30.182 12.3309 30.8653 12.8916 31.346 13.6111C31.8267 14.3305 32.0833 15.1764 32.0833 16.0417V20.4167ZM37.9167 16.0417C37.9167 15.1764 38.1733 14.3305 38.654 13.6111C39.1347 12.8916 39.818 12.3309 40.6174 11.9997C41.4169 11.6686 42.2965 11.5819 43.1452 11.7508C43.9939 11.9196 44.7734 12.3362 45.3853 12.9481C45.9971 13.56 46.4138 14.3395 46.5826 15.1882C46.7514 16.0368 46.6648 16.9165 46.3336 17.7159C46.0025 18.5154 45.4417 19.1986 44.7223 19.6794C44.0028 20.1601 43.157 20.4167 42.2917 20.4167H37.9167V16.0417ZM49.5833 55.4167C49.5833 56.1902 49.276 56.9321 48.7291 57.4791C48.1821 58.0261 47.4402 58.3334 46.6667 58.3334H37.9167V37.9167H49.5833V55.4167ZM55.4167 32.0834H37.9167V26.25H52.5C53.2735 26.25 54.0154 26.5573 54.5624 27.1043C55.1094 27.6513 55.4167 28.3931 55.4167 29.1667V32.0834Z" fill="#898989"/>
</svg>
