<svg width="70" height="70" viewBox="0 0 70 70" fill="none" xmlns="http://www.w3.org/2000/svg">
<path d="M27.709 30.625H35.0007C35.7742 30.625 36.5161 30.3177 37.0631 29.7707C37.6101 29.2238 37.9173 28.4819 37.9173 27.7083C37.9173 26.9348 37.6101 26.1929 37.0631 25.6459C36.5161 25.099 35.7742 24.7917 35.0007 24.7917H32.084V23.3333C32.084 22.5598 31.7767 21.8179 31.2297 21.2709C30.6828 20.724 29.9409 20.4167 29.1673 20.4167C28.3938 20.4167 27.6519 20.724 27.1049 21.2709C26.558 21.8179 26.2507 22.5598 26.2507 23.3333V24.9375C24.4786 25.2973 22.9034 26.3028 21.8309 27.7587C20.7585 29.2146 20.2652 31.017 20.4469 32.8161C20.6287 34.6153 21.4724 36.2827 22.8144 37.4947C24.1563 38.7067 25.9007 39.3768 27.709 39.375H30.6257C31.0124 39.375 31.3834 39.5286 31.6569 39.8021C31.9304 40.0756 32.084 40.4466 32.084 40.8333C32.084 41.2201 31.9304 41.591 31.6569 41.8645C31.3834 42.138 31.0124 42.2917 30.6257 42.2917H23.334C22.5605 42.2917 21.8186 42.599 21.2716 43.1459C20.7246 43.6929 20.4173 44.4348 20.4173 45.2083C20.4173 45.9819 20.7246 46.7238 21.2716 47.2707C21.8186 47.8177 22.5605 48.125 23.334 48.125H26.2507V49.5833C26.2507 50.3569 26.558 51.0988 27.1049 51.6457C27.6519 52.1927 28.3938 52.5 29.1673 52.5C29.9409 52.5 30.6828 52.1927 31.2297 51.6457C31.7767 51.0988 32.084 50.3569 32.084 49.5833V47.9792C33.8561 47.6193 35.4313 46.6139 36.5038 45.158C37.5762 43.7021 38.0695 41.8996 37.8878 40.1005C37.706 38.3014 36.8623 36.634 35.5203 35.422C34.1784 34.21 32.4339 33.5399 30.6257 33.5417H27.709C27.3222 33.5417 26.9513 33.388 26.6778 33.1145C26.4043 32.841 26.2507 32.4701 26.2507 32.0833C26.2507 31.6966 26.4043 31.3256 26.6778 31.0521C26.9513 30.7787 27.3222 30.625 27.709 30.625ZM61.2507 35H52.5007V8.75001C52.5027 8.23606 52.3689 7.7307 52.1128 7.2851C51.8567 6.8395 51.4874 6.46948 51.0423 6.21251C50.599 5.95652 50.096 5.82175 49.584 5.82175C49.072 5.82175 48.5691 5.95652 48.1257 6.21251L39.3757 11.2292L30.6257 6.21251C30.1823 5.95652 29.6793 5.82175 29.1673 5.82175C28.6554 5.82175 28.1524 5.95652 27.709 6.21251L18.959 11.2292L10.209 6.21251C9.76562 5.95652 9.26266 5.82175 8.75067 5.82175C8.23869 5.82175 7.73573 5.95652 7.29234 6.21251C6.84724 6.46948 6.47795 6.8395 6.22186 7.2851C5.96577 7.7307 5.83197 8.23606 5.83401 8.75001V55.4167C5.83401 57.7373 6.75588 59.9629 8.39682 61.6039C10.0378 63.2448 12.2634 64.1667 14.584 64.1667H55.4173C57.738 64.1667 59.9636 63.2448 61.6045 61.6039C63.2455 59.9629 64.1673 57.7373 64.1673 55.4167V37.9167C64.1673 37.1431 63.8601 36.4013 63.3131 35.8543C62.7661 35.3073 62.0242 35 61.2507 35ZM14.584 58.3333C13.8105 58.3333 13.0686 58.0261 12.5216 57.4791C11.9746 56.9321 11.6673 56.1902 11.6673 55.4167V13.7958L17.5007 17.1208C17.9508 17.356 18.4512 17.4787 18.959 17.4787C19.4669 17.4787 19.9672 17.356 20.4173 17.1208L29.1673 12.1042L37.9173 17.1208C38.3675 17.356 38.8678 17.4787 39.3757 17.4787C39.8835 17.4787 40.3839 17.356 40.834 17.1208L46.6673 13.7958V55.4167C46.6752 56.4117 46.8528 57.398 47.1923 58.3333H14.584ZM58.334 55.4167C58.334 56.1902 58.0267 56.9321 57.4797 57.4791C56.9328 58.0261 56.1909 58.3333 55.4173 58.3333C54.6438 58.3333 53.9019 58.0261 53.3549 57.4791C52.808 56.9321 52.5007 56.1902 52.5007 55.4167V40.8333H58.334V55.4167Z" fill="#898989"/>
</svg>
