<svg width="70" height="70" viewBox="0 0 70 70" fill="none" xmlns="http://www.w3.org/2000/svg">
<path d="M29.3719 59.8002C29.3719 59.3724 29.2777 58.9499 29.0962 58.5626C28.9146 58.1753 28.6501 57.8326 28.3214 57.559C27.9927 57.2853 27.6078 57.0872 27.194 56.9789C26.7802 56.8705 26.3476 56.8545 25.9269 56.9319C22.1088 57.6326 17.288 57.738 16.0063 54.1378C14.8886 51.3494 13.0373 48.9155 10.6486 47.094C10.4782 47.0013 10.3157 46.8946 10.163 46.775C9.95392 46.2235 9.58259 45.7484 9.09799 45.4123C8.61339 45.0761 8.03827 44.8948 7.44852 44.8922H7.43429C6.66312 44.892 5.92324 45.1972 5.37661 45.7412C4.82998 46.2851 4.52111 47.0235 4.51762 47.7947C4.50621 50.173 6.88304 51.6968 7.84729 52.2124C8.98433 53.3548 9.89815 54.6995 10.5418 56.1772C11.6042 59.1623 14.6918 63.6911 23.5671 63.1072C23.57 63.2098 23.5728 63.3066 23.5742 63.3949L23.587 64.1753C23.587 64.9489 23.8943 65.6908 24.4413 66.2377C24.9883 66.7847 25.7301 67.092 26.5037 67.092C27.2772 67.092 28.0191 66.7847 28.5661 66.2377C29.1131 65.6908 29.4204 64.9489 29.4204 64.1753L29.4061 63.2468C29.3919 62.6941 29.3719 61.8937 29.3719 59.8002ZM60.484 15.6827C60.5766 15.3181 60.6678 14.9136 60.7475 14.4579C61.2192 11.2075 60.808 7.89012 59.5569 4.85332C59.399 4.45742 59.1565 4.10084 58.8463 3.80857C58.536 3.51631 58.1656 3.29544 57.761 3.16144C56.7227 2.81109 52.889 2.1218 45.5575 6.80728C39.4632 5.37314 33.1192 5.37314 27.025 6.80728C19.7233 2.19043 15.9094 2.81693 14.8812 3.14733C14.4666 3.2759 14.0861 3.4956 13.7674 3.79033C13.4488 4.08506 13.2002 4.44736 13.0397 4.85066C11.7631 7.94577 11.3564 11.3308 11.8634 14.6403C11.9346 15.0134 12.0115 15.3581 12.0913 15.6742C9.67502 18.8926 8.38801 22.8182 8.42977 26.8424C8.4219 27.7403 8.46326 28.6379 8.55367 29.5312C9.52784 42.9553 18.2778 46.9856 24.3746 48.37C24.2478 48.7345 24.1325 49.1247 24.0299 49.5378C23.8472 50.2882 23.9695 51.0805 24.37 51.7409C24.7706 52.4013 25.4167 52.8759 26.1666 53.0607C26.9166 53.2454 27.7092 53.1253 28.3707 52.7265C29.0321 52.3277 29.5085 51.6829 29.6952 50.9334C29.8808 49.9616 30.3565 49.0688 31.0596 48.3728C31.4847 48.0006 31.7925 47.5129 31.9455 46.969C32.0986 46.4251 32.0902 45.8484 31.9215 45.3092C31.7528 44.7699 31.4311 44.2913 30.9954 43.9315C30.5597 43.5718 30.0288 43.3464 29.4674 43.2829C19.3929 42.1321 15.0193 38.0277 14.3614 28.9958C14.2885 28.2804 14.2557 27.5615 14.2631 26.8424C14.2163 23.9744 15.1639 21.1785 16.9448 18.9298C17.1237 18.6954 17.3143 18.4701 17.5159 18.2548C17.873 17.8552 18.113 17.365 18.2098 16.8379C18.3065 16.3108 18.2561 15.7673 18.0642 15.2669C17.8674 14.7406 17.7159 14.1983 17.6113 13.6462C17.3737 12.0762 17.4516 10.4746 17.8406 8.9351C20.3755 9.65107 22.7613 10.8165 24.8843 12.3758C25.2354 12.6097 25.6327 12.7653 26.0492 12.8321C26.4657 12.899 26.8917 12.8755 27.2983 12.7632C33.1932 11.1634 39.408 11.1644 45.3024 12.7661C45.7112 12.8783 46.1395 12.9004 46.5577 12.8311C46.9759 12.7618 47.3741 12.6026 47.7249 12.3645C49.838 10.7987 52.2137 9.62287 54.7403 8.89246C55.1275 10.395 55.2141 11.9592 54.9952 13.4953C54.8896 14.1006 54.7245 14.6941 54.5024 15.267C54.3105 15.7673 54.2601 16.3109 54.3569 16.8379C54.4536 17.365 54.6937 17.8553 55.0508 18.2548C55.2758 18.5083 55.5008 18.7818 55.703 19.0381C57.4714 21.2487 58.4029 24.0124 58.3335 26.8424C58.3388 27.5996 58.3022 28.3565 58.2239 29.1097C57.5816 38.022 53.1909 42.1293 43.0695 43.2828C42.5079 43.3468 41.977 43.5725 41.5413 43.9326C41.1056 44.2927 40.784 44.7716 40.6155 45.3111C40.447 45.8507 40.4388 46.4275 40.5921 46.9715C40.7453 47.5156 41.0533 48.0034 41.4787 48.3756C42.2038 49.0903 42.6806 50.0187 42.8387 51.0245C43.0358 51.8053 43.1264 52.6092 43.1079 53.4143V60.2218C43.0794 62.1101 43.0794 63.5257 43.0794 64.1752C43.0794 64.9487 43.3867 65.6906 43.9336 66.2376C44.4806 66.7845 45.2225 67.0918 45.996 67.0918C46.7696 67.0918 47.5114 66.7845 48.0584 66.2376C48.6054 65.6906 48.9127 64.9487 48.9127 64.1752C48.9127 63.5428 48.9127 62.1557 48.9412 60.2673V53.4143C48.9647 52.1246 48.8128 50.8377 48.4897 49.589C48.3974 49.1791 48.2842 48.7741 48.1508 48.3756C52.5878 47.6386 56.6192 45.3509 59.5276 41.9199C62.4359 38.489 64.0324 34.1373 64.0329 29.6395C64.129 28.7103 64.1738 27.7765 64.1669 26.8424C64.2316 22.8138 62.9339 18.8815 60.484 15.6827L60.484 15.6827Z" fill="#898989"/>
</svg>
