<svg width="70" height="70" viewBox="0 0 70 70" fill="none" xmlns="http://www.w3.org/2000/svg">
<path d="M17.4993 32.0833C16.9225 32.0833 16.3586 32.2544 15.8789 32.5749C15.3993 32.8954 15.0255 33.3509 14.8047 33.8838C14.5839 34.4168 14.5262 35.0032 14.6387 35.569C14.7513 36.1348 15.0291 36.6545 15.437 37.0624C15.8449 37.4703 16.3646 37.7481 16.9303 37.8606C17.4961 37.9732 18.0826 37.9154 18.6155 37.6947C19.1485 37.4739 19.604 37.1001 19.9245 36.6204C20.245 36.1408 20.416 35.5769 20.416 35C20.416 34.2265 20.1087 33.4846 19.5617 32.9376C19.0148 32.3906 18.2729 32.0833 17.4993 32.0833ZM52.4993 32.0833C51.9225 32.0833 51.3586 32.2544 50.8789 32.5749C50.3993 32.8954 50.0255 33.3509 49.8047 33.8838C49.5839 34.4168 49.5262 35.0032 49.6387 35.569C49.7513 36.1348 50.029 36.6545 50.437 37.0624C50.8449 37.4703 51.3646 37.7481 51.9303 37.8606C52.4961 37.9732 53.0826 37.9154 53.6155 37.6947C54.1485 37.4739 54.604 37.1001 54.9245 36.6204C55.245 36.1408 55.416 35.5769 55.416 35C55.416 34.2265 55.1087 33.4846 54.5617 32.9376C54.0148 32.3906 53.2729 32.0833 52.4993 32.0833ZM58.3327 14.5833H11.666C9.34537 14.5833 7.11977 15.5052 5.47883 17.1462C3.83789 18.7871 2.91602 21.0127 2.91602 23.3333V46.6667C2.91602 48.9873 3.83789 51.2129 5.47883 52.8539C7.11977 54.4948 9.34537 55.4167 11.666 55.4167H58.3327C60.6533 55.4167 62.8789 54.4948 64.5199 52.8539C66.1608 51.2129 67.0827 48.9873 67.0827 46.6667V23.3333C67.0827 21.0127 66.1608 18.7871 64.5199 17.1462C62.8789 15.5052 60.6533 14.5833 58.3327 14.5833ZM61.2493 46.6667C61.2493 47.4402 60.9421 48.1821 60.3951 48.7291C59.8481 49.276 59.1062 49.5833 58.3327 49.5833H11.666C10.8925 49.5833 10.1506 49.276 9.60362 48.7291C9.05664 48.1821 8.74935 47.4402 8.74935 46.6667V23.3333C8.74935 22.5598 9.05664 21.8179 9.60362 21.2709C10.1506 20.724 10.8925 20.4167 11.666 20.4167H58.3327C59.1062 20.4167 59.8481 20.724 60.3951 21.2709C60.9421 21.8179 61.2493 22.5598 61.2493 23.3333V46.6667ZM34.9993 26.25C33.2688 26.25 31.577 26.7632 30.1381 27.7246C28.6992 28.6861 27.5777 30.0527 26.9154 31.6515C26.2531 33.2504 26.0799 35.0097 26.4175 36.707C26.7551 38.4044 27.5885 39.9635 28.8122 41.1872C30.0359 42.4109 31.595 43.2443 33.2923 43.5819C34.9896 43.9195 36.749 43.7462 38.3478 43.0839C39.9467 42.4217 41.3132 41.3002 42.2747 39.8612C43.2362 38.4223 43.7493 36.7306 43.7493 35C43.7493 32.6794 42.8275 30.4538 41.1865 28.8128C39.5456 27.1719 37.32 26.25 34.9993 26.25ZM34.9993 37.9167C34.4225 37.9167 33.8586 37.7456 33.3789 37.4251C32.8993 37.1046 32.5255 36.6491 32.3047 36.1162C32.0839 35.5832 32.0262 34.9968 32.1387 34.431C32.2513 33.8652 32.5291 33.3455 32.937 32.9376C33.3449 32.5297 33.8646 32.2519 34.4303 32.1394C34.9961 32.0268 35.5826 32.0846 36.1155 32.3054C36.6485 32.5261 37.104 32.8999 37.4245 33.3796C37.745 33.8592 37.916 34.4231 37.916 35C37.916 35.7736 37.6087 36.5154 37.0617 37.0624C36.5148 37.6094 35.7729 37.9167 34.9993 37.9167Z" fill="#898989"/>
</svg>
